<svg width="0" height="0" display="none">
  <symbol viewBox="0 0 89 53" fill="none" xmlns="http://www.w3.org/2000/svg" id="air">
    <path fill="var(--air)" d="M88.224 24.26c-.324-.845-.897-1.52-1.799-2.081-1.63-.874-3.263-1.268-5.052-1.3-1.577.008-3.424.053-5.54.134l-3.059.21c-.673.09-1.289.106-1.963.197-.615.015-1.038-.065-1.44-.49-.172-.25-.42-.558-.669-.866L58.43 3.876c-.344-.5-.688-1-1.108-1.56C56.48 1.2 55.481.925 54.731.958c-1.308-.028-2.579.213-3.678.703-1.175.433-1.718 1.464-1.474 2.73.075.538.207.998.32 1.325 1.214 3.803 2.562 7.587 3.776 11.39.474 1.44.93 2.747.98 4.108-.02.345.017.613-.004.958l-8.582.957c-.943.127-1.828.179-2.771.306-.077-.058-.096-.192-.172-.25l-.553-1.02c-.458-.827-.781-1.672-1.239-2.5-.553-1.019-1.53-1.639-2.685-1.55-.616.014-1.29.105-1.963.196-1.212.165-1.928.945-1.895 2.172-.02.345.017.613.054.882l.063 2.932c.003 3.488.083 7.034.22 10.504-.002.479.054.882.245 1.266.19.385.513 1.23 1.454 1.582 1.152.39 2.307.303 3.31-.38a4.448 4.448 0 0 0 1.992-2.459l.37-.802.933-2.178c3.289-.035 6.52.006 9.732-.086l1.577-.009-.06.556c-.102 1.245-.28 2.431-.67 3.579l-3.324 11.666c-.177.708-.43 1.358-.548 1.99-.255 1.129.01 2.05.776 2.63.307.233.672.389 1.095.468.288.098.576.196.845.16 1.691.317 3.096.059 4.274-.853.926-.741 1.488-1.638 1.876-2.306l8.32-14.737c.659-1.184 1.376-2.444 2.036-3.627.33-.592.715-.78 1.33-.796l2.656-.154c2.115-.081 4.155-.22 6.27-.302 1.77-.103 3.1-.42 4.41-.87.982-.338 2.08-.83 3.007-1.57 1.138-.701 1.567-2.059 1.189-3.307zm-2.413 1.9c-.81.589-1.717.985-2.565 1.305-1.04.415-2.31.655-3.811.721-2.04.14-4.155.22-6.271.302l-2.52.136c-1.308-.028-2.388.597-3.048 1.78-.66 1.184-1.319 2.368-2.036 3.628l-8.32 14.737c-.503.82-.91 1.354-1.411 1.696-.753.512-1.619.697-2.676.499a4.697 4.697 0 0 1-.71-.178c-.577-.195-.672-.388-.535-.885.118-.632.371-1.281.548-1.99l3.477-11.55c.371-1.281.531-2.603.691-3.924l.12-1.11.065-1.514-3.712-.045c-3.365-.023-6.789.03-10.078.065-.827-.025-1.099.49-1.254.854-.37.802-.662 1.662-1.03 2.465l-.37.802c-.311.726-.718 1.26-1.296 1.544-.578.283-1.117.356-1.77.102 0 0-.153-.116-.267-.442a1.153 1.153 0 0 1-.093-.672c-.08-3.545-.14-6.957-.144-10.445l-.063-2.932c-.038-.269.002-.48.023-.824-.019-.134.04-.21.04-.21l.269-.037c.539-.073 1.212-.164 1.693-.161.404-.055.71.177.901.562.458.827.84 1.596 1.239 2.5l.553 1.02.286.576c.209.519.727.79 1.343.776 1.077-.146 2.097-.216 3.175-.362l9.063-.953 1.078-.146.023-.824c.04-.21.02-.345.06-.555.002-.48.081-.9.025-1.303-.088-1.63-.505-3.146-1.055-4.645a606.443 606.443 0 0 1-3.775-11.39c-.114-.326-.228-.653-.284-1.056-.055-.403.003-.479.272-.515.906-.397 1.984-.542 3.08-.554.27-.037.557.061.978.62.42.558.764 1.06 1.032 1.502l10.272 16.187c.267.443.593.809.841 1.117.727.791 1.745 1.2 2.9 1.113.673-.092 1.288-.107 1.962-.198l3.059-.209c2.116-.08 3.886-.184 5.463-.192a8.466 8.466 0 0 1 4.13 1.082c.442.214.69.523.88.907.25.308.054.882-.447 1.223zm-53.854.882c.003-.48-.476-.962-.957-.965L1.01 26.1c-.48-.003-.964.473-.966.952-.021.345.15.595.38.77.154.115.366.155.577.195l29.99-.024c.558.061.906-.397.966-.952zm-.196 5.508a1.167 1.167 0 0 0-1.034-1.023l-18.313.085c-.481-.003-.964.473-.966.952-.021.345.15.595.38.77.154.115.366.155.577.195l18.39-.027c.481.003.964-.473.966-.952zm-21.478-.049c.003-.479-.476-.961-.957-.964l-3.02-.002c-.48-.003-.964.472-.966.951-.02.345.151.596.381.77.153.116.365.156.576.195l3.02.002c.481.003.964-.473.966-.952zm3.957-10.455c.002-.48-.476-.962-.957-.965l-3.02-.002c-.48-.003-.964.473-.966.952-.02.345.151.595.381.77.153.115.365.155.576.195l3.02.001c.48.004.964-.472.966-.951zm17.44.114c.002-.48-.477-.962-.957-.965l-14.35-.04c-.482-.004-.965.472-.967.95.037.27.151.596.381.77.154.116.365.156.576.196l14.35.04c.482.004.965-.472.967-.95z"></path>
  </symbol>
  <symbol viewBox="0 0 15 36" xmlns="http://www.w3.org/2000/svg" id="arrow-down">
    <path fill="var(--arrowdown)" fill-rule="evenodd" clip-rule="evenodd" d="M7.5 0c.23 0 .417.185.417.414v34.131l6.363-6.691a.419.419 0 0 1 .59-.017.412.412 0 0 1 .016.585L7.803 35.87a.418.418 0 0 1-.606 0L.114 28.422a.412.412 0 0 1 .017-.585.419.419 0 0 1 .589.017l6.363 6.691V.414C7.083.185 7.27 0 7.5 0z"></path>
  </symbol>
  <symbol viewBox="0 0 55 55" xmlns="http://www.w3.org/2000/svg" id="arrow-next">
    <circle fill="var(--circle)" r="27.5" transform="matrix(-1 0 0 1 27.5 27.5)"></circle>
    <path d="M23.5 39L35 27.5 23.5 16" fill="var(--circle)" stroke="var(--icon)" stroke-width="3" stroke-linecap="round" stroke-linejoin="round"></path>
  </symbol>
  <symbol viewBox="0 0 46 45" xmlns="http://www.w3.org/2000/svg" id="fb">
    <path fill="var(--circle)" d="M45.281 22.75c0 5.51-1.797 10.362-5.39 14.555-3.594 4.133-8.056 6.618-13.387 7.457V29.219h5.21l.99-6.469h-6.2v-4.223c0-2.276 1.198-3.414 3.594-3.414h2.785v-5.48c-1.677-.3-3.324-.45-4.942-.45-1.737 0-3.234.33-4.492.989-1.198.659-2.156 1.647-2.875 2.965-.719 1.317-1.078 2.875-1.078 4.672v4.941h-5.66v6.469h5.66v15.543c-5.33-.839-9.793-3.325-13.387-7.457C2.516 33.112.72 28.26.72 22.75c0-6.17 2.156-11.41 6.468-15.723C11.56 2.655 16.831.47 23 .47c6.17 0 11.41 2.186 15.723 6.558 4.372 4.313 6.558 9.554 6.558 15.723z"></path>
  </symbol>
  <symbol viewBox="0 0 31 31" xmlns="http://www.w3.org/2000/svg" id="galka">
    <circle fill="var(--circle)" cx="15.143" cy="15.143" r="15.143"></circle>
    <path d="M9.086 15.521l5.358 7.193L21.2 8.33" fill="var(--circle)" stroke="var(--icon)" stroke-width="3" stroke-linecap="round" stroke-linejoin="round"></path>
  </symbol>
  <symbol viewBox="0 0 20 20" xmlns="http://www.w3.org/2000/svg" id="geo">
    <path fill="var(--circle)" d="M16.102 2.535A8.597 8.597 0 0 0 9.982 0a8.6 8.6 0 0 0-6.12 2.535 8.598 8.598 0 0 0-2.534 6.12c0 2.31.9 4.484 2.535 6.119l4.598 4.598c.405.405.945.628 1.521.628s1.117-.223 1.522-.628l4.598-4.598a8.597 8.597 0 0 0 2.535-6.12 8.6 8.6 0 0 0-2.535-6.12zm-.829 11.41l-4.598 4.598a.973.973 0 0 1-.693.285.973.973 0 0 1-.693-.285l-4.597-4.598A7.433 7.433 0 0 1 2.5 8.655c0-2 .778-3.878 2.192-5.292a7.434 7.434 0 0 1 5.29-2.191c1.999 0 3.878.778 5.291 2.191 2.918 2.918 2.918 7.665 0 10.582z"></path>
    <path fill="var(--circle)" d="M9.982 5.558a3.1 3.1 0 0 0-3.096 3.096 3.1 3.1 0 0 0 3.096 3.096 3.1 3.1 0 0 0 3.097-3.096 3.1 3.1 0 0 0-3.097-3.096zm0 5.02a1.927 1.927 0 0 1-1.924-1.924c0-1.061.863-1.925 1.924-1.925 1.062 0 1.925.864 1.925 1.925a1.927 1.927 0 0 1-1.925 1.925z"></path>
  </symbol>
  <symbol viewBox="0 0 41 41" xmlns="http://www.w3.org/2000/svg" id="instagram">
    <path fill="var(--circle)" d="M13.223 13.473c2.036-2.037 4.492-3.055 7.367-3.055s5.3 1.018 7.277 3.055c2.037 1.976 3.055 4.402 3.055 7.277s-1.018 5.33-3.055 7.367c-1.976 1.977-4.402 2.965-7.277 2.965s-5.33-.988-7.367-2.965c-1.977-2.036-2.965-4.492-2.965-7.367s.988-5.3 2.965-7.277zm2.605 12.039c1.318 1.317 2.905 1.976 4.762 1.976 1.857 0 3.444-.659 4.762-1.976 1.317-1.318 1.976-2.905 1.976-4.762 0-1.857-.659-3.444-1.976-4.762-1.318-1.317-2.905-1.976-4.762-1.976-1.857 0-3.444.659-4.762 1.976-1.318 1.318-1.976 2.905-1.976 4.762 0 1.857.658 3.444 1.976 4.762zm17.16-17.16c.48.419.719.958.719 1.617s-.24 1.228-.719 1.707c-.419.479-.958.719-1.617.719s-1.228-.24-1.707-.72a2.325 2.325 0 0 1-.719-1.706c0-.66.24-1.198.72-1.617.478-.48 1.047-.72 1.706-.72s1.198.24 1.617.72zm7.637 4.132c.06 1.618.09 4.373.09 8.266s-.03 6.648-.09 8.266c-.18 3.653-1.288 6.498-3.324 8.535-1.977 1.976-4.792 3.024-8.446 3.144-1.617.12-4.372.18-8.265.18-3.893 0-6.649-.06-8.266-.18-3.653-.18-6.469-1.258-8.445-3.234a8.67 8.67 0 0 1-1.887-2.516A14.752 14.752 0 0 1 .914 32.16c-.18-.898-.27-1.946-.27-3.144-.12-1.618-.18-4.373-.18-8.266s.06-6.678.18-8.355C.825 8.8 1.903 6.015 3.88 4.039 5.855 2.003 8.67.895 12.324.715c1.617-.06 4.373-.09 8.266-.09s6.648.03 8.265.09c3.654.18 6.47 1.288 8.446 3.324 2.036 1.977 3.144 4.792 3.324 8.445zM36.312 32.61c.18-.479.33-1.078.45-1.797.12-.778.21-1.677.27-2.695.06-1.078.09-1.946.09-2.605v-9.524c0-.659-.03-1.497-.09-2.515-.06-1.079-.15-1.977-.27-2.696-.12-.778-.27-1.407-.45-1.886-.718-1.857-2.006-3.145-3.863-3.864-.479-.18-1.108-.33-1.886-.449-.72-.12-1.618-.21-2.696-.27a44.403 44.403 0 0 0-2.515-.09h-9.524c-.659 0-1.527.03-2.605.09a29.21 29.21 0 0 0-2.696.27c-.718.12-1.317.27-1.797.45-1.856.718-3.144 2.006-3.863 3.863-.18.479-.33 1.108-.449 1.886-.12.72-.21 1.618-.27 2.696a44.392 44.392 0 0 0-.09 2.515V26.77c.06.898.12 1.677.18 2.335.06.6.15 1.228.27 1.887.12.659.24 1.198.36 1.617.778 1.857 2.066 3.145 3.862 3.864.48.18 1.079.33 1.797.449.779.12 1.677.21 2.696.27 1.078.06 1.916.09 2.515.09h9.614c.658 0 1.497-.03 2.515-.09 1.078-.06 1.977-.15 2.695-.27.78-.12 1.408-.27 1.887-.45 1.857-.778 3.145-2.066 3.864-3.863z"></path>
  </symbol>
  <symbol viewBox="0 0 106 128" xmlns="http://www.w3.org/2000/svg" id="logo">
    <path fill="var(--victory-text)" d="M90.24 107.844v8.055c0 4.061 0 4.061-3.712 4.061-3.046 0-3.538-1.364-3.538-3.923v-5.67c0-2.523-.139-2.523-2.94-2.523v7.949c0 4.096.947 6.689 5.639 6.689 2.625 0 3.92-.807 4.551-1.823v1.893c0 3.116 0 2.977-3.677 2.977h-4.201c-2.311 0-2.311.139-2.311 2.448h6.477c5.673 0 6.689-2.871 6.689-5.637v-11.973c0-2.523 0-2.523-2.977-2.523zm-16.842 2.031c0-1.996 0-1.996-2.276-1.996v11.872c0 2.484 0 2.484 2.975 2.484v-7.947c0-3.223 0-3.921 2.521-3.921 1.892 0 1.892.069 1.892-2.556-3.151-.143-4.622 1.049-5.112 2.064zm-11.1 10.085c-3.292 0-4.027-2.171-4.027-4.903 0-4.865 0-4.865 4.06-4.865 3.399 0 4.064 2.205 4.064 4.865 0 4.903 0 4.903-4.097 4.903zm.033-12.22c-5.636 0-7.106 3.536-7.106 7.317 0 3.817 1.435 7.353 7.073 7.353 5.603 0 7.144-3.501 7.144-7.353 0-3.781-1.54-7.317-7.11-7.317zm-10.609 2.592c2.417 0 2.417 0 2.417-2.453h-3.887v-3.605h-2.976v2.556c0 1.679.246 1.748-1.89 1.748l-.037 1.789h1.927v7.735c0 3.399 1.996 4.52 6.724 4.238 0-2.52 0-2.52-2.278-2.52-1.155 0-1.4-.806-1.4-1.718v-7.77h1.4zm-12.044.035h2.24c2.242 0 2.242 0 2.242-2.452h-4.412c-5.533 0-7.073 3.361-7.073 7.18 0 3.814 1.47 7.177 7.144 7.177h4.341c0-2.417 0-2.417-2.346-2.417h-2.1c-3.152 0-3.992-2.066-3.992-4.798 0-4.865 0-4.69 3.956-4.69zm-12.22-2.488v11.801c0 2.555 0 2.555 2.975 2.555v-11.903c0-2.453 0-2.453-2.975-2.453zm1.436-5.254c-1.331 0-2.207.353-2.207 1.823 0 1.434.876 1.785 2.207 1.785 1.295 0 2.135-.351 2.135-1.785 0-1.47-.84-1.823-2.135-1.823zm-11.24 17.09l-3.327-9.279c-.91-2.557-.91-2.557-4.202-2.557l5.814 14.356c3.36 0 3.36.037 4.446-2.52l5.041-11.836h-3.395l-4.376 11.836z"></path>
    <path fill="var(--logocontur1)" d="M14.853 36.9l2.247 1.63c1.236.898 3.497 1.636 5.023 1.636h19.712c1.528 0 3.162-1.191 3.634-2.644l6.091-18.743c.473-1.451.473-3.829 0-5.282l-.858-2.641c-.474-1.454-1.246-1.454-1.718 0L41.91 32.622c-.471 1.454-2.108 2.644-3.635 2.644H15.383c-1.527 0-1.765.734-.53 1.633z"></path>
    <path fill="var(--logocontur2)" d="M6.332 30.953l1.911 1.389c1.204.875 3.408 1.594 4.894 1.594h24.087c1.485 0 3.081-1.163 3.54-2.579l7.442-22.903c.46-1.416.46-3.734 0-5.146l-.729-2.246c-.46-1.416-1.21-1.416-1.671 0l-8.361 25.73c-.46 1.415-2.053 2.573-3.54 2.573H6.848c-1.487 0-1.72.715-.517 1.588z"></path>
    <path fill="var(--logocontur1)" d="M93.729 42.172l-2.777.012c-1.528.006-3.788.747-5.02 1.649l-15.9 11.647c-1.233.903-1.847 2.83-1.369 4.28l6.162 18.72c.476 1.45 1.881 3.369 3.121 4.262l2.254 1.623c1.24.893 1.864.437 1.385-1.015l-7.156-21.74c-.478-1.45.139-3.377 1.371-4.28l18.467-13.528c1.232-.902.99-1.635-.537-1.631z"></path>
    <path fill="var(--logocontur2)" d="M104.049 41.953l-2.362.009c-1.489.006-3.691.728-4.89 1.606L77.365 57.802c-1.199.878-1.799 2.759-1.333 4.172l7.531 22.874c.465 1.414 1.835 3.285 3.04 4.151l1.916 1.382c1.208.87 1.813.427 1.349-.988l-8.46-25.698c-.466-1.413.135-3.288 1.335-4.168L104.57 43.54c1.2-.88.965-1.594-.521-1.587z"></path>
    <path fill="var(--logocontur1)" d="M75.214 87.766l-.87-2.637c-.48-1.45-1.883-3.37-3.122-4.263L55.224 69.35c-1.24-.893-3.262-.881-4.494.023L34.836 81.025c-1.231.902-2.62 2.831-3.086 4.287l-.846 2.645c-.465 1.456.161 1.907 1.393 1.003l18.46-13.532c1.23-.904 3.254-.913 4.494-.02l18.578 13.374c1.239.892 1.861.435 1.385-1.016z"></path>
    <path fill="var(--logocontur2)" d="M78.631 97.55l-.739-2.243c-.466-1.413-1.834-3.284-3.04-4.153l-19.55-14.073c-1.205-.868-3.18-.856-4.38.024l-19.42 14.24c-1.201.88-2.556 2.761-3.007 4.176l-.72 2.249c-.454 1.417.155 1.856 1.356.977L50.95 82.749c1.2-.88 3.17-.888 4.377-.019l21.957 15.807c1.207.87 1.813.424 1.347-.987z"></path>
    <path fill="var(--logocontur1)" d="M11.786 43.803l18.468 13.528c1.232.903 1.849 2.83 1.37 4.28l-7.155 21.74c-.479 1.452.144 1.908 1.385 1.015l2.253-1.623c1.24-.893 2.645-2.811 3.122-4.262l6.161-18.72c.479-1.45-.136-3.377-1.368-4.28L20.12 43.833c-1.231-.902-3.491-1.643-5.019-1.65l-2.777-.011c-1.527-.004-1.77.73-.538 1.631z"></path>
    <path fill="var(--logocontur2)" d="M1.454 43.54L23.28 59.527c1.2.88 1.802 2.755 1.335 4.168l-8.46 25.698c-.464 1.414.141 1.858 1.349.988l1.915-1.382c1.206-.866 2.576-2.737 3.04-4.15l7.532-22.875c.466-1.413-.134-3.294-1.332-4.172L9.228 43.568c-1.2-.878-3.402-1.6-4.89-1.606l-2.363-.009c-1.486-.007-1.721.708-.521 1.587z"></path>
    <path fill="var(--logocontur1)" d="M90.907 35.265H68.015c-1.528 0-3.164-1.19-3.636-2.642l-7.074-21.767c-.471-1.454-1.244-1.454-1.717 0l-.859 2.64c-.472 1.454-.472 3.832 0 5.283l6.092 18.743c.471 1.453 2.106 2.644 3.633 2.644h19.712c1.527 0 3.788-.738 5.024-1.635l2.247-1.632c1.234-.9.996-1.634-.53-1.634z"></path>
    <path fill="var(--logocontur2)" d="M99.39 29.365H72.335c-1.488 0-3.081-1.157-3.54-2.573l-8.361-25.73c-.462-1.416-1.212-1.416-1.672 0l-.729 2.246c-.46 1.412-.46 3.73 0 5.146l7.442 22.903c.459 1.416 2.055 2.579 3.54 2.579h24.087c1.486 0 3.69-.72 4.894-1.594l1.91-1.389c1.204-.873.971-1.588-.516-1.588z"></path>
  </symbol>
  <symbol viewBox="0 0 18 14" xmlns="http://www.w3.org/2000/svg" id="mail">
    <path fill="var(--circle)" d="M16.418.145H1.582C.711.145 0 .855 0 1.727v10.546c0 .87.708 1.582 1.582 1.582h14.836c.869 0 1.582-.707 1.582-1.582V1.727c0-.87-.708-1.582-1.582-1.582zM16.2 1.199L9.034 8.365 1.806 1.2h14.393zM1.055 12.055V1.94l5.079 5.036-5.08 5.079zm.745.746l5.083-5.083 1.78 1.766a.527.527 0 0 0 .745-.002l1.737-1.736L16.2 12.8H1.8zm15.145-.746L11.89 7l5.055-5.055v10.11z"></path>
  </symbol>
  <symbol viewBox="0 0 18 18" xmlns="http://www.w3.org/2000/svg" id="phone">
    <path fill="var(--circle)" d="M15.933 13.58l-2.626-2.625a1.4 1.4 0 0 0-1.98 0l-.764.765A12.889 12.889 0 0 1 6.28 7.438l.838-.839a1.402 1.402 0 0 0 0-1.98L4.494 1.995a1.4 1.4 0 0 0-1.982.002L.862 3.658C.073 4.321-.205 5.41.155 6.441c1.848 5.294 6.111 9.557 11.405 11.404.996.348 2.018.088 2.669-.582a.665.665 0 0 0 .027-.026l1.677-1.677a1.402 1.402 0 0 0 0-1.98zm-.836 1.144l-1.64 1.639a.59.59 0 0 0-.056.054c-.345.375-.9.504-1.451.311-4.957-1.73-8.948-5.72-10.678-10.677-.198-.567-.055-1.155.364-1.498a.594.594 0 0 0 .046-.041L3.35 2.83a.216.216 0 0 1 .307 0l2.626 2.626a.217.217 0 0 1 0 .307L5.12 6.925a.591.591 0 0 0-.097.708 14.07 14.07 0 0 0 5.343 5.343c.231.13.521.091.71-.097l1.087-1.088a.217.217 0 0 1 .307 0l2.626 2.626a.217.217 0 0 1 0 .307zM9.453 4.617a.591.591 0 0 0 0 1.183 2.75 2.75 0 0 1 2.748 2.747.591.591 0 1 0 1.182 0 3.934 3.934 0 0 0-3.93-3.93z"></path>
    <path fill="var(--circle)" d="M9.454 2.296a.591.591 0 1 0 0 1.183 5.074 5.074 0 0 1 5.068 5.068.591.591 0 1 0 1.183 0 6.258 6.258 0 0 0-6.252-6.251z"></path>
    <path fill="var(--circle)" d="M15.497 2.504A8.49 8.49 0 0 0 9.453 0a.591.591 0 0 0 0 1.183c4.06 0 7.364 3.303 7.364 7.363a.591.591 0 1 0 1.183 0 8.491 8.491 0 0 0-2.503-6.043z"></path>
  </symbol>
  <symbol viewBox="0 0 50 38" xmlns="http://www.w3.org/2000/svg" id="quotes">
    <path fill="var(--circle)" d="M1.963 31.042A2.112 2.112 0 0 0 .307 33.12v2.468c0 .531.208 1.03.585 1.403.373.37.864.572 1.384.572h.022c5.888-.06 10.639-1.333 14.121-3.781 3.565-2.507 5.693-6.691 5.693-11.194v-19.4A2.997 2.997 0 0 0 19.123.191H3.297a2.997 2.997 0 0 0-2.99 2.996v14.216a2.997 2.997 0 0 0 2.99 2.997h9.365v3.403c0 4.698-9.604 6.993-10.699 7.24zM12.77 17.297H3.402V3.294h15.615v19.293c0 3.492-1.635 6.727-4.374 8.653-2.745 1.93-6.522 3.001-11.24 3.191v-.543c3.701-.93 12.354-3.782 12.354-10.085v-3.51a2.995 2.995 0 0 0-2.988-2.996zM47.011.19H31.184a2.996 2.996 0 0 0-2.988 2.997v14.216a2.996 2.996 0 0 0 2.988 2.997h9.367v3.403c0 4.698-9.604 6.993-10.7 7.24a2.113 2.113 0 0 0-1.655 2.076v2.468c0 .531.207 1.03.584 1.404.372.37.863.571 1.385.571h.02c5.889-.06 10.64-1.332 14.123-3.781C47.872 31.274 50 27.09 50 22.587v-8.304a1.55 1.55 0 0 0-1.548-1.552 1.55 1.55 0 0 0-1.547 1.552v8.304c0 3.493-1.636 6.727-4.374 8.653-2.745 1.93-6.522 3.002-11.24 3.191v-.543c3.701-.93 12.355-3.78 12.355-10.085v-3.51a2.997 2.997 0 0 0-2.99-2.996H31.29V3.294h15.615v3.748a1.548 1.548 0 1 0 3.095 0V3.187A2.995 2.995 0 0 0 47.01.191z"></path>
  </symbol>
  <symbol viewBox="0 0 80 80" xmlns="http://www.w3.org/2000/svg" id="spok-1">
    <circle cx="40" cy="40" r="40" fill="var(--spokcircle)"></circle>
    <path fill="var(--icon)" d="M27.968 19.488a1.179 1.179 0 0 0-1.545.012l-3.22 2.881v-.378a.8.8 0 1 0-1.599 0v1.81l-1.333 1.194a.8.8 0 0 0 1.066 1.192l5.866-5.25 5.865 5.25a.8.8 0 1 0 1.067-1.192l-6.167-5.519zm4.034 7.715a.8.8 0 0 0-.8.8V33.6h-7.998v-5.599a.8.8 0 1 0-1.6 0v6.107c.008.61.51 1.1 1.12 1.092h8.958a1.109 1.109 0 0 0 1.12-1.094v-6.105a.8.8 0 0 0-.8-.8zM27.203 36.8a5.599 5.599 0 1 0 5.599 5.6 5.605 5.605 0 0 0-5.6-5.6zm-4 5.6a4.006 4.006 0 0 1 3.2-3.92v3.466l-2.96 1.775a3.943 3.943 0 0 1-.24-1.321zm1.065 2.692l2.81-1.686 2.327 2.326a3.96 3.96 0 0 1-5.137-.64zm6.268-.491l-2.533-2.533V38.48a3.992 3.992 0 0 1 2.533 6.12zm28.66-14.199v-2.738c0-.697-.565-1.261-1.261-1.262h-2.277a1.263 1.263 0 0 0-1.261 1.262v2.738h-1.6v-5.015c0-.764-.62-1.383-1.383-1.384h-2.032a1.385 1.385 0 0 0-1.384 1.384v5.015h-1.6v-8.799a1.6 1.6 0 0 0-1.599-1.6h-1.6a1.6 1.6 0 0 0-1.6 1.6v8.799h-.8a.8.8 0 0 1-.799-.8v-9.598a.8.8 0 0 0-1.6 0v9.598a2.4 2.4 0 0 0 2.4 2.4h18.396a.8.8 0 1 0 0-1.6zm-14.397 0h-1.6v-8.799h1.6v8.799zm6.399 0h-1.6v-4.8h1.6v4.8zm6.398 0h-1.6v-2.4h1.6v2.4zm1.6 15.997H40.8a.8.8 0 0 1-.8-.8V44.33l2.634-2.633a.817.817 0 0 1 1.13 0l.938.937a2.4 2.4 0 0 0 3.393 0l3.337-3.337a.817.817 0 0 1 1.13 0l.938.938a2.404 2.404 0 0 0 3.393 0l2.868-2.868a.8.8 0 0 0-1.13-1.13l-2.869 2.867a.8.8 0 0 1-1.13 0l-.938-.938a2.457 2.457 0 0 0-3.393 0l-3.337 3.337a.8.8 0 0 1-1.13 0l-.937-.937a2.458 2.458 0 0 0-3.394 0L40 42.068v-6.067a.8.8 0 1 0-1.6 0v9.598a2.4 2.4 0 0 0 2.4 2.4h18.396a.8.8 0 1 0 0-1.6z"></path>
    <path fill="var(--icon)" d="M63.995 53.16V20.44a4.239 4.239 0 0 0-4-4.435h-39.99a4.239 4.239 0 0 0-4 4.435v32.72a4.24 4.24 0 0 0 4 4.436H32.8v1.6h-3.199a3.2 3.2 0 0 0-3.2 3.2v.8a.8.8 0 0 0 .8.799h25.595a.8.8 0 0 0 .8-.8v-.8a3.2 3.2 0 0 0-3.2-3.199H47.2v-1.6h12.797a4.239 4.239 0 0 0 3.999-4.436zm-13.597 7.636a1.6 1.6 0 0 1 1.6 1.6H28.003a1.6 1.6 0 0 1 1.6-1.6h20.795zm-15.997-1.6v-1.6H45.6v1.6H34.4zm25.595-3.2H20.004a2.65 2.65 0 0 1-2.4-2.836v-1.962h44.791v1.962a2.65 2.65 0 0 1-2.4 2.837zm2.4-35.556v29.158H17.604V20.44a2.648 2.648 0 0 1 2.4-2.835h39.99a2.648 2.648 0 0 1 2.4 2.835z"></path>
  </symbol>
  <symbol viewBox="0 0 80 80" xmlns="http://www.w3.org/2000/svg" id="spok-2">
    <circle cx="40" cy="40" r="40" fill="var(--spokcircle)"></circle>
    <path fill="var(--icon)" d="M36.8 31.2a2.403 2.403 0 0 0-2.4 2.4H36a.8.8 0 0 1 1.6 0h1.6c0-1.323-1.077-2.4-2.4-2.4zm6.4 0a2.403 2.403 0 0 0-2.4 2.4h1.6a.8.8 0 0 1 1.6 0h1.6c0-1.323-1.077-2.4-2.4-2.4zM40 52.8a3.203 3.203 0 0 0-3.2 3.2c0 1.765 1.435 3.2 3.2 3.2 1.765 0 3.2-1.435 3.2-3.2 0-1.765-1.435-3.2-3.2-3.2zm0 4.8c-.882 0-1.6-.718-1.6-1.6 0-.883.718-1.6 1.6-1.6.882 0 1.6.717 1.6 1.6 0 .882-.718 1.6-1.6 1.6z"></path>
    <path fill="var(--icon)" d="M59.2 62.4V52c0-6.617-5.383-12-12-12h-.871c.285-.25.553-.518.806-.8H48c2.206 0 4-1.794 4-4v-1.41a3.598 3.598 0 0 0 1.6-2.99c0-1.25-.64-2.35-1.61-2.996C51.884 21.278 46.551 16 40 16s-11.884 5.278-11.99 11.804A3.597 3.597 0 0 0 30 34.4h.545a9.583 9.583 0 0 0 3.127 5.6H32.8c-6.617 0-12 5.383-12 12v10.4H16V64h48v-1.6h-4.8zm-8.8-27.2a2.395 2.395 0 0 1-2.08 2.367 9.514 9.514 0 0 0 1.135-3.167H50c.137 0 .267-.026.4-.04v.84zm1.6-4.4c0 1.102-.897 2-2 2h-.4v-4h.4c1.103 0 2 .898 2 2zm-21.6 2H30c-1.103 0-2-.898-2-2 0-1.102.897-2 2-2h.4v4zm-.4-5.6c-.124 0-.24.024-.362.037C30.032 21.858 34.523 17.6 40 17.6s9.968 4.258 10.362 9.637c-.121-.013-.238-.037-.362-.037h-.545c-.765-4.533-4.708-8-9.455-8s-8.69 3.467-9.455 8H30zm18 1.58c-5.774-.203-9.6-2.564-9.6-4.78a.8.8 0 1 0-1.6 0c0 2-2.067 3.656-4.754 3.95.427-4.013 3.83-7.15 7.954-7.15 4.404 0 7.988 3.578 8 7.98zM32 32.8v-3.245c2.498-.217 4.618-1.421 5.677-3.109 1.673 2.218 5.585 3.779 10.323 3.938V32.8a7.95 7.95 0 0 1-1.615 4.8H40v1.6h4.78a7.96 7.96 0 0 1-8.078.88C33.934 38.82 32 36.035 32 32.8zm5.527 9.266c.79.21 1.617.334 2.473.334a9.57 9.57 0 0 0 2.473-.334L40 47.01l-2.473-4.945zM38.706 48h-1.412l-3.2-6.4h1.412l3.2 6.4zm5.788-6.4h1.412l-3.2 6.4h-1.412l3.2-6.4zM24.8 52v10.4h-2.4V52c0-5.572 4.408-10.12 9.918-10.375L35.506 48H28.8c-2.206 0-4 1.794-4 4zm28.8 10.4H26.4V52c0-1.323 1.077-2.4 2.4-2.4h22.4c1.323 0 2.4 1.077 2.4 2.4v10.4zm4 0h-2.4V52c0-2.206-1.794-4-4-4h-6.706l3.188-6.375c5.51.254 9.918 4.803 9.918 10.375v10.4z"></path>
    <path fill="var(--icon)" d="M52 55.2h-1.6v5.6H52v-5.6zm0-3.2h-1.6v1.6H52V52zm7.2-28.8h-1.6v1.6h1.6v-1.6zm0 3.2h-1.6V28h1.6v-1.6zm0 3.2h-1.6v1.6h1.6v-1.6zm-36.8 3.2h-1.6v1.6h1.6v-1.6zm0 3.2h-1.6v1.6h1.6V36zm0 3.2h-1.6v1.6h1.6v-1.6z"></path>
  </symbol>
  <symbol viewBox="0 0 80 80" xmlns="http://www.w3.org/2000/svg" id="spok-3">
    <circle cx="40" cy="40" r="40" fill="var(--spokcircle)"></circle>
    <path fill="var(--icon)" d="M63.063 39.063h-2.629a.937.937 0 0 0 0 1.874h2.629a.937.937 0 0 0 0-1.874zm-.096-5.006a.937.937 0 0 0-1.28-.343l-1.722.994a.937.937 0 1 0 .938 1.623l1.72-.993a.937.937 0 0 0 .344-1.28zm-.343 10.605l-1.721-.994a.937.937 0 1 0-.938 1.624l1.721.994a.937.937 0 0 0 .937-1.624zM55.78 27.064c-.925-4.038-2.177-6-3.83-6-.318 0-.62.073-.91.22L16.576 35.76a.937.937 0 0 0-.575.864v6.75c0 .377.226.718.574.864l5.056 2.124.01.004 2.422 1.017v5.881a2.675 2.675 0 0 0 2.672 2.672h8.53a2.675 2.675 0 0 0 2.672-2.672v-.053l13.106 5.506c.289.146.591.219.908.219 1.653 0 2.905-1.963 3.83-6 .795-3.466 1.233-8.06 1.233-12.936 0-4.876-.438-9.47-1.232-12.936zm-19.72 26.2c0 .44-.357.797-.796.797h-8.53a.798.798 0 0 1-.797-.796V48.17l10.124 4.253v.84zm-13.123-8.387v-4.892a.937.937 0 0 0-1.875 0v4.104l-3.187-1.338v-5.504l31.09-13.058c-.308.801-.59 1.758-.845 2.875-.029.126-.057.255-.085.384l-10.63 4.001a.938.938 0 0 0 .66 1.755l9.568-3.602c-.484 3.04-.745 6.634-.745 10.398 0 4.876.438 9.47 1.232 12.936.256 1.116.537 2.073.844 2.875L22.937 44.877zm25.902-8.33a3.52 3.52 0 0 1 2.924 3.465 3.52 3.52 0 0 1-2.923 3.464 77.234 77.234 0 0 1 0-6.929zm5.114 15.97c-.856 3.736-1.812 4.544-2.003 4.544a.11.11 0 0 1-.027-.005l-.046-.022-.022-.009c-.315-.19-1.15-1.203-1.907-4.508-.467-2.034-.805-4.484-.998-7.162a5.397 5.397 0 0 0 4.688-5.343 5.397 5.397 0 0 0-4.69-5.343c.193-2.687.532-5.146 1-7.187.757-3.303 1.591-4.316 1.906-4.507l.083-.035.013-.001c.191 0 1.147.808 2.003 4.543.764 3.333 1.185 7.779 1.185 12.518 0 4.74-.421 9.185-1.185 12.518z"></path>
    <path fill="var(--icon)" d="M34.703 33.47a.938.938 0 0 0-1.206-.55l-.022.008a.938.938 0 0 0 .658 1.756l.021-.008a.937.937 0 0 0 .55-1.207z"></path>
  </symbol>
  <symbol viewBox="0 0 80 80" xmlns="http://www.w3.org/2000/svg" id="spok-4">
    <circle cx="40" cy="40" r="40" fill="var(--spokcircle)"></circle>
    <path fill="var(--icon)" d="M19.793 45.376a.935.935 0 0 0 1.326 0l14.19-14.19 8.59 8.59a.938.938 0 0 0 1.326 0l4.983-4.982a.937.937 0 1 0-1.326-1.326l-4.32 4.32-8.59-8.59a.939.939 0 0 0-1.326 0l-14.19 14.189-2.193-2.193L35.31 24.15l8.59 8.59a.938.938 0 0 0 1.326 0l11.322-11.321a.937.937 0 0 0 0-1.326l-.345-.346 5.534-1.482-1.482 5.534-.188-.187a.937.937 0 0 0-1.326 0l-4.554 4.554a.938.938 0 1 0 1.326 1.326l3.891-3.892.673.673a.938.938 0 0 0 1.568-.42l2.324-8.672a.937.937 0 0 0-1.148-1.148l-8.672 2.323a.938.938 0 0 0-.42 1.569l.83.83-9.995 9.997-8.591-8.591a.937.937 0 0 0-1.326 0l-18.372 18.37a.937.937 0 0 0 0 1.326l3.518 3.519z"></path>
    <path fill="var(--icon)" d="M63.062 62.125h-.937V33.78a.937.937 0 0 0-.938-.937h-5.25a.937.937 0 0 0-.937.937v28.344h-2.156V44.969a.938.938 0 0 0-.938-.938h-5.25a.938.938 0 0 0-.937.938v17.156h-2.157V49.937a.938.938 0 0 0-.937-.937h-5.25a.938.938 0 0 0-.938.937v12.188h-2.156V44.969a.938.938 0 0 0-.937-.938h-5.25a.938.938 0 0 0-.938.938v17.156H25V53.53a.938.938 0 0 0-.938-.938h-5.25a.938.938 0 0 0-.937.938v8.594h-.938a.938.938 0 0 0 0 1.875h46.125a.937.937 0 1 0 0-1.875zm-43.312 0v-7.657h3.375v7.657H19.75zm9.281 0V45.906h3.375v16.219h-3.375zm9.282 0v-11.25h3.374v11.25h-3.374zm9.28 0V45.906h3.376v16.219h-3.375zm9.282 0V34.719h3.375v27.406h-3.375zm-5.341-31.309a.945.945 0 0 0-.274.663.94.94 0 0 0 1.6.663.941.941 0 0 0 0-1.326.945.945 0 0 0-.663-.274c-.247 0-.489.1-.663.274z"></path>
  </symbol>
  <symbol viewBox="0 0 20 20" xmlns="http://www.w3.org/2000/svg" id="timetable">
    <path fill="var(--circle)" d="M18.828 11.416v-9.62a.586.586 0 0 0-.586-.585h-2.969V.586a.586.586 0 1 0-1.171 0v.625h-2.344V.586a.586.586 0 1 0-1.172 0v.625H8.242V.586a.586.586 0 1 0-1.172 0v.625H4.727V.586a.586.586 0 1 0-1.172 0v.625H.585A.586.586 0 0 0 0 1.797V17.07c0 .324.262.586.586.586h9.758A5.273 5.273 0 0 0 14.727 20 5.28 5.28 0 0 0 20 14.727c0-1.253-.44-2.405-1.172-3.311zM3.555 2.383v.586a.586.586 0 1 0 1.172 0v-.586H7.07v.586a.586.586 0 1 0 1.172 0v-.586h2.344v.586a.586.586 0 1 0 1.172 0v-.586h2.344v.586a.586.586 0 1 0 1.171 0v-.586h2.383v2.344H1.172V2.383h2.383zM1.172 16.484V5.898h16.484v4.446a5.243 5.243 0 0 0-2.93-.89c-1.85 0-3.482.958-4.424 2.406a.582.582 0 0 0-.263-.063H8.867a.586.586 0 1 0 0 1.172h.888a5.229 5.229 0 0 0-.27 1.172h-.618a.586.586 0 1 0 0 1.171h.619c.045.407.136.8.269 1.172H1.172zm13.555 2.344a4.106 4.106 0 0 1-4.102-4.101 4.106 4.106 0 0 1 4.102-4.102 4.106 4.106 0 0 1 4.101 4.102 4.106 4.106 0 0 1-4.101 4.101z"></path>
    <path fill="var(--circle)" d="M17.07 14.14h-1.758v-1.757a.586.586 0 1 0-1.171 0v2.344c0 .323.262.585.586.585h2.343a.586.586 0 1 0 0-1.171zM5.313 7.11H4.14a.586.586 0 1 0 0 1.171h1.171a.586.586 0 1 0 0-1.172zm0 2.343H4.14a.586.586 0 1 0 0 1.172h1.171a.586.586 0 1 0 0-1.172zm0 2.344H4.14a.586.586 0 1 0 0 1.172h1.171a.586.586 0 1 0 0-1.172zm3.554-3.516h1.172a.586.586 0 1 0 0-1.172H8.867a.586.586 0 1 0 0 1.172zm0 2.344h1.172a.586.586 0 1 0 0-1.172H8.867a.586.586 0 1 0 0 1.172zM5.313 14.14H4.14a.586.586 0 1 0 0 1.172h1.171a.586.586 0 1 0 0-1.171zm8.242-5.859h1.172a.586.586 0 1 0 0-1.172h-1.172a.586.586 0 1 0 0 1.172z"></path>
  </symbol>
  <symbol viewBox="0 0 50 30" xmlns="http://www.w3.org/2000/svg" id="vk">
    <path fill="var(--circle)" d="M48.09 2.352c-.18.898-.899 2.365-2.156 4.402a135.208 135.208 0 0 1-3.325 5.39c-1.018 1.498-1.557 2.277-1.617 2.336-.36.54-.539.929-.539 1.168 0 .24.18.66.54 1.258l.538.63c.42.418.899.898 1.438 1.437a60.531 60.531 0 0 1 1.797 1.886 28.54 28.54 0 0 1 1.797 2.157 12.248 12.248 0 0 1 1.527 2.066c.479.719.808 1.318.988 1.797.42 1.497-.18 2.246-1.797 2.246h-5.3c-.42 0-.78-.06-1.079-.18-.3-.12-.629-.33-.988-.629-.36-.3-.689-.628-.988-.988-.3-.36-.749-.868-1.348-1.527a54.588 54.588 0 0 0-1.797-1.887c-2.396-2.276-4.162-3.414-5.3-3.414-.72 0-1.139.21-1.258.629-.12.42-.18 1.617-.18 3.594.06.958.09 1.737.09 2.336 0 .718-.24 1.257-.719 1.617-.48.3-1.527.449-3.145.449-2.815 0-5.66-.838-8.535-2.516-2.875-1.677-5.39-4.073-7.547-7.187-2.036-2.755-3.743-5.48-5.12-8.176C2.748 8.491 1.88 6.395 1.46 4.957 1.04 3.52.832 2.501.832 1.902.832.884 1.431.375 2.629.375h5.3c.66 0 1.139.15 1.438.45.36.299.659.838.899 1.616 1.257 3.654 2.785 6.918 4.582 9.793 1.856 2.875 3.264 4.313 4.222 4.313.36 0 .6-.12.72-.36.179-.299.269-.838.269-1.617V6.754c-.06-.839-.21-1.557-.45-2.156-.24-.6-.479-1.019-.718-1.258l-.72-.899c-.179-.3-.269-.569-.269-.808 0-.24.06-.45.18-.63a1.6 1.6 0 0 1 .45-.448c.239-.12.478-.18.718-.18h8.355c.959 0 1.438.659 1.438 1.977v10.421c0 1.019.27 1.528.809 1.528.599 0 1.437-.54 2.515-1.617 1.138-1.258 2.246-2.786 3.324-4.582 1.078-1.797 1.887-3.295 2.426-4.493l.809-1.707C39.346.884 40.094.375 41.172.375h5.3c1.438 0 1.977.659 1.618 1.977z"></path>
  </symbol>
  <symbol viewBox="0 0 18 19" xmlns="http://www.w3.org/2000/svg" id="web">
    <path fill="var(--circle)" d="M9 .351c4.963 0 9 4.13 9 9.207 0 5.076-4.037 9.206-9 9.206s-9-4.13-9-9.206C0 4.48 4.037.35 9 .35zm.527 4.52a12.058 12.058 0 0 0 2.355-.339 9.67 9.67 0 0 0-.394-.843c-.582-1.096-1.295-1.865-1.96-2.143V4.87zm0 1.079v3.068h3.294a13.838 13.838 0 0 0-.576-3.468c-.874.226-1.792.362-2.718.4zm0 4.147v3.068c.926.038 1.844.174 2.718.4.33-1.082.53-2.27.576-3.468H9.527zm0 4.148v3.324c.666-.278 1.38-1.047 1.96-2.143.143-.267.274-.55.395-.843a12.042 12.042 0 0 0-2.355-.338zm-1.054 0c-.803.035-1.597.15-2.355.338.121.294.252.576.394.843.582 1.096 1.295 1.865 1.96 2.143v-3.324zm0-1.08v-3.068H5.179c.046 1.198.246 2.386.576 3.468a13.063 13.063 0 0 1 2.718-.4zm0-4.147V5.95a13.073 13.073 0 0 1-2.718-.4c-.33 1.082-.53 2.27-.576 3.468h3.294zm0-4.148V1.546c-.666.278-1.38 1.047-1.96 2.143a9.67 9.67 0 0 0-.395.843c.758.188 1.552.303 2.355.338zM5.585 3.175c.264-.498.551-.937.854-1.311a7.92 7.92 0 0 0-2.813 1.713c.458.251.952.47 1.471.651.147-.366.31-.718.488-1.053zm6.83 0c.178.335.34.687.488 1.053.52-.182 1.013-.4 1.471-.65a7.92 7.92 0 0 0-2.813-1.714c.303.374.59.813.854 1.31zm.845 2.067c.36 1.178.571 2.462.617 3.776h3.05a8.193 8.193 0 0 0-1.803-4.633c-.573.336-1.2.624-1.864.857zm.617 4.855a14.744 14.744 0 0 1-.617 3.776c.664.234 1.291.521 1.864.857a8.193 8.193 0 0 0 1.803-4.633h-3.05zm-.974 4.79c-.147.366-.31.718-.488 1.053a8.203 8.203 0 0 1-.853 1.311 7.918 7.918 0 0 0 2.812-1.713 9.85 9.85 0 0 0-1.471-.651zM5.585 15.94a11.16 11.16 0 0 1-.488-1.053c-.52.182-1.013.4-1.471.651a7.92 7.92 0 0 0 2.813 1.713 8.211 8.211 0 0 1-.854-1.31zm-.845-2.067a14.747 14.747 0 0 1-.617-3.776h-3.05a8.192 8.192 0 0 0 1.803 4.633c.573-.336 1.2-.623 1.864-.857zm-.617-4.855c.046-1.314.257-2.598.617-3.776a10.73 10.73 0 0 1-1.864-.857 8.192 8.192 0 0 0-1.803 4.633h3.05z"></path>
  </symbol>
  <symbol viewBox="0 0 108 108" xmlns="http://www.w3.org/2000/svg" id="work-1">
    <circle fill="var(--circle)" cx="54" cy="54" r="54"></circle>
    <path fill="var(--text)" d="M66.5 12.1V101H47.3V43.2H25.7V29.9H28c13.5 0 21.3-5.9 23.6-17.8h14.9z"></path>
    <path fill="var(--icon)" d="M35.6 74.2h1.9v2c0 .4.3.7.6.7h26.6c.3 0 .6-.3.6-.7v-2.7H64v2H38.8v-1.4h14.6v-1.4H36.3V43.5h5.1c.3 0 .6-.3.6-.7v-5.5h19.6v13h1.3V40.1h1.3v11.6h1.3V39.4c0-.4-.3-.7-.6-.7H63v-2c0-.4-.3-.7-.6-.7H41c-.1 0-.1.1-.2.1l-5.7 6.1c-.1.1-.1.1-.1.2v31c0 .2.1.4.2.5.1.2.3.3.4.3zm5.1-35.9v3.8h-3.5l3.5-3.8z"></path>
    <path fill="var(--icon)" d="M54.6 51v-.7h5.1v-3.4c0-1.1-.8-1.9-1.7-2H40.1c-1 0-1.9.9-1.9 2v21.8c0 1.1.9 2 1.9 2h9.5v-1.4h-6.3v-2h5.1V66h-5.1v-2h4.4v-1.4h-4.4v-2h4.6v-1.4h-4.6v-2H49v-1.4h-5.7v-2h8.2v-1.4h-8.2v-2h10.1v.6h1.2zm3.3-4.8c.3 0 .6.3.6.7v2h-3.8v-2.7h3.2c-.1 0-.1 0 0 0zm-17.8 0H42V49h-2.5v-2c-.1-.5.2-.8.6-.8zM42 69.4h-1.9c-.3 0-.6-.3-.6-.7v-1.4H42v2.1zm0-3.4h-2.5v-2H42v2zm0-3.4h-2.5v-2H42v2zm0-3.4h-2.5v-2H42v2zm0-3.4h-2.5v-2H42v2zm0-3.4h-2.5v-2H42v2zm1.2-3.4v-2.7h10.1V49H43.2zm1.3-6.9h5.1v1.4h-5.1v-1.4zm6.3 0h2.5v1.4h-2.5v-1.4zm-6.3-2.7h8.9v1.4h-8.9v-1.4z"></path>
    <path fill="var(--icon)" d="M67.7 68.2c2.7-4.7 1.6-11-2.6-14.4-4.1-3.4-10-2.8-13.5 1.3-3.6 4.1-3.6 10.5-.1 14.7 3.5 4.2 9.4 4.9 13.6 1.5l4.6 4.9c.8.8 2 .8 2.8 0 .8-.8.8-2.2 0-3l-4.8-5zm-17.5-5.6c0-5.3 4-9.5 8.9-9.5s8.9 4.3 8.9 9.5c0 5.3-4 9.5-8.9 9.5s-8.9-4.2-8.9-9.5zM71 75.5c-.2 0-.4-.1-.5-.2L66 70.5c.3-.4.7-.7 1-1.1l4.5 4.9c.2.2.3.5.2.8-.1.3-.4.4-.7.4z"></path>
    <path fill="var(--icon)" d="M59.1 54.4c-4.2 0-7.6 3.7-7.6 8.2 0 4.5 3.4 8.2 7.6 8.2s7.6-3.7 7.6-8.2c0-4.5-3.4-8.2-7.6-8.2zm-2.6 8.2c0-1.5 1.1-2.7 2.5-2.7s2.5 1.2 2.5 2.7c0 1.5-1.1 2.7-2.5 2.7-1.3 0-2.5-1.2-2.5-2.7zm-.7 2.1c-1.1-.4-2.1-1.2-2.9-2.1.8-.9 1.8-1.6 2.9-2.1-.7 1.3-.7 2.9 0 4.2zm6.5-4.2c1.1.4 2.1 1.2 2.9 2.1-.8.9-1.8 1.6-2.9 2.1.7-1.3.7-2.9 0-4.2zm-3.2-4.7c2.8 0 5.3 2 6.1 4.9-1.6-1.4-3.6-2.1-5.7-2.2h-.8c-2.1.1-4.1.8-5.7 2.2.8-2.9 3.3-4.9 6.1-4.9zm0 13.6c-2.8 0-5.3-2-6.1-4.9 1.6 1.4 3.6 2.1 5.7 2.2h.8c2.1-.1 4.1-.8 5.7-2.2-.8 2.9-3.3 4.9-6.1 4.9z"></path>
    <path fill="var(--icon)" d="M60.3 62.6c0 .8-.6 1.4-1.3 1.4-.7 0-1.3-.6-1.3-1.4 0-.8.6-1.4 1.3-1.4.8 0 1.3.6 1.3 1.4z"></path>
  </symbol>
  <symbol viewBox="0 0 109 110" xmlns="http://www.w3.org/2000/svg" id="work-2">
    <circle fill="var(--circle)" cx="54" cy="56" r="54"></circle>
    <path fill="var(--text)" d="M84 79.7V94H24.5c.1-3.6.5-7 1.4-10 .9-3.1 2-5.7 3.1-7.8 1.2-2.1 3.1-4.3 5.6-6.6s4.6-4.2 6.5-5.6c1.9-1.4 4.7-3.3 8.4-5.8.5-.3 1.7-1.1 3.7-2.4 2-1.3 3.4-2.2 4.2-2.8.8-.5 1.9-1.5 3.5-2.8 1.5-1.4 2.6-2.6 3.2-3.6.7-1 1.4-2.2 2-3.7.6-1.5.9-3.1.9-4.8 0-3.6-1.1-6.4-3.2-8.5-2.1-2.2-4.9-3.2-8.4-3.2-8.4 0-12.8 5.9-13.2 17.6H26.4v-1.7c0-9.2 2.7-16.5 8-21.9 5.3-5.5 12.5-8.2 21.6-8.2 8.2 0 14.8 2.3 20 7 5.1 4.6 7.7 10.5 7.7 17.9 0 6-1.4 10.7-4.1 14.3-2.7 3.6-7 7.3-12.8 11.3-.8.5-2.2 1.5-4.3 2.9-2.1 1.3-3.8 2.4-5 3.2-1.2.9-2.6 1.9-4.3 3.2-1.7 1.3-3.2 2.6-4.4 3.9-1.2 1.2-2.3 2.5-3.1 3.8H84z"></path>
    <path fill="var(--icon)" d="M64.2 60v-6.3c0-3.1-2.6-5.7-5.7-5.7H48.3c-3.1 0-5.7 2.6-5.7 5.7v8.2h1.3v-8.2c0-2.4 2-4.4 4.4-4.4h1l3.6 3.6c.2.2.6.2.9 0l3.6-3.6h1c2.4 0 4.4 2 4.4 4.4V60h1.4zm-10.8-8.5l-2.3-2.3h4.5l-2.2 2.3z"></path>
    <path fill="var(--icon)" d="M47.1 54.9h1.3v5.7h-1.3v-5.7zm11.4 0h1.3v4.4h-1.3v-4.4zm13.3 7h-8.1c-1.4-.8-3-1.2-4.5-1.2h-.1c-1.6 0-3.3.4-4.7 1.2h-4.7c-1.4 0-2.5 1.1-2.5 2.5v.2c0 .2 0 .3.1.5l-3.6-1.6h-.1l-2.1-1c-.8-.4-1.8-.3-2.6.2s-1.2 1.4-1.2 2.3c0 1 .6 2 1.5 2.4l8.2 4.1c.6.3 1.3.5 2 .5h22.5c.3 0 .6-.3.6-.6v-8.9c-.1-.3-.4-.6-.7-.6zm-8.9 8.8H49.2c-.5 0-1-.1-1.4-.3l-8.2-4.1c-.5-.2-.8-.7-.8-1.3v-.1c0-.5.2-.9.7-1.2.4-.3.9-.3 1.4-.1l2.1 1h.1l5 2.3c.1 0 .2.1.3.1h7v-1.3h-5.7c-.7 0-1.2-.5-1.3-1.2v-.1c0-.7.6-1.3 1.3-1.3h4.9c.1 0 .2 0 .3-.1l.2-.1c1.2-.7 2.6-1 4.1-1h.1c1.3 0 2.6.3 3.8.9v7.9zm8.2 0h-7v-7.6h7v7.6z"></path>
    <path fill="var(--icon)" d="M65.4 68.2h1.3v1.3h-1.3v-1.3zm-12-21.5c2.8 0 5.1-2.3 5.1-5.1v-2.5c0-2.8-2.3-5.1-5.1-5.1s-5.1 2.3-5.1 5.1v2.5c.1 2.8 2.3 5.1 5.1 5.1zm-3.8-7.6c0-2.1 1.7-3.8 3.8-3.8 2.1 0 3.8 1.7 3.8 3.8v2.5c0 2.1-1.7 3.8-3.8 3.8-2.1 0-3.8-1.7-3.8-3.8v-2.5z"></path>
    <path fill="var(--icon)" d="M52.2 39.1c0-.5.3-1 .8-1.2l-.4-1.2c-1 .4-1.7 1.3-1.7 2.4v.6h1.3v-.6z"></path>
  </symbol>
  <symbol viewBox="0 0 108 108" xmlns="http://www.w3.org/2000/svg" id="work-3">
    <circle fill="var(--circle)" cx="54" cy="54" r="54"></circle>
    <path fill="var(--text)" d="M22.8 37.2c.3-9.2 3.2-16.5 8.6-21.7 5.4-5.3 12.8-8 22.1-8 8.8 0 15.9 2.3 21.3 6.9 5.5 4.5 8.3 10.3 8.3 17.5 0 4.3-1.1 8.1-3.4 11.3-2.2 3.1-5.2 5.2-9 6.2 4.9 1.2 8.8 3.6 11.6 7.2 2.8 3.6 4.2 8 4.2 13.2 0 8.5-3.1 15.4-9.3 20.8-6.1 5.3-14 8-23.7 8-10.1 0-18.1-2.8-24-8.4-5.9-5.6-8.9-13.1-8.9-22.6v-1.3H38c.1 5.5 1.4 9.7 3.9 12.7 2.6 2.9 6.3 4.3 11.2 4.3 4.4 0 8-1.2 10.7-3.7 2.7-2.5 4.1-5.8 4.1-9.8 0-4.7-1.5-8-4.6-10-3-2.1-6.8-3.2-11.6-3.2-1.8 0-3.3 0-4.4.1V44.2c.9.1 1.9.1 3 .1 10.3 0 15.5-3.7 15.5-11.2 0-3.4-1.1-6.1-3.4-8.1-2.2-2-5.2-3-8.9-3-4.2 0-7.5 1.3-9.9 3.9-2.3 2.6-3.5 6.4-3.6 11.3H22.8z"></path>
    <path fill="var(--icon)" d="M61.8 44.7l2.3-.7-.6-2.5-2.3.7.6 2.5zM46.3 67.4h-7.2l9.1-35.8h10.3l.8 3.3 2.3-.7-1.2-5.2h-14L36 69.9h12.3l1.7-7.7h3.4v-2.6H48l-1.7 7.8z"></path>
    <path fill="var(--icon)" d="M60.6 39.8l2.3-.7-.6-2.5-2.3.7.6 2.5zm-5.8-3.1H52l-4.5 17.9h5.9V52h-2.8l2.8-11 .9 3.6 2.3-.7-1.8-7.2zm11.9 10.2H55.8v7.7h9.7c.7 0 1.2.6 1.2 1.3v1.3h-4.9c-3.4 0-6.1 2.9-6.1 6.4 0 3.5 2.7 6.4 6.1 6.4H74V54.6c0-4.3-3.3-7.7-7.3-7.7zm4.9 20.5h-9.7c-2 0-3.6-1.7-3.6-3.8 0-2.1 1.6-3.8 3.6-3.8h7.3V56c0-2.1-1.6-3.8-3.6-3.8h-7.3v-2.6h8.5c2.7 0 4.9 2.3 4.9 5.1v12.7z"></path>
    <path fill="var(--icon)" d="M69.1 62.2h-7.3v2.6h7.3v-2.6z"></path>
  </symbol>
  <symbol viewBox="0 0 111 108" xmlns="http://www.w3.org/2000/svg" id="work-4">
    <circle fill="var(--circle)" cx="57" cy="54" r="54"></circle>
    <path fill="var(--text)" d="M85.3 63.5v14.2H74.1V97H58.2V77.7h-36V62l36.5-49.2h15.4v50.8h11.2zm-27.1 0V32.3L35.9 63.5h22.3z"></path>
    <g fill="var(--icon)">
      <path d="M41.2 57.2c.3 0 .6-.3.6-.6v-14c0-.3-.3-.6-.6-.6s-.6.3-.6.6v13.9c-.1.4.2.7.6.7zm0-16.5c.3 0 .6-.3.6-.6v-1.3c0-.3-.3-.6-.6-.6s-.6.3-.6.6v1.3c-.1.3.2.6.6.6zm15.8 7c-1.4 0-2.5 1.1-2.5 2.5s1.1 2.5 2.5 2.5 2.5-1.1 2.5-2.5-1.1-2.5-2.5-2.5zm0 3.8c-.7 0-1.3-.6-1.3-1.3 0-.7.6-1.3 1.3-1.3.7 0 1.3.6 1.3 1.3 0 .7-.6 1.3-1.3 1.3z"></path>
      <path d="M64 47.7h-1.2c-.2-.4-.4-.8-.7-1.2l.6-1c.3-.6.1-1.4-.5-1.7L60 42.4c-.3-.2-.6-.2-1-.1-.3.1-.6.3-.8.6l-.6 1c-.5-.1-.9-.1-1.4 0l-.6-1c-.4-.6-1.1-.8-1.7-.5l-2.2 1.3c-.6.4-.8 1.1-.5 1.7l.6 1c-.3.4-.5.8-.7 1.2h-1.2c-.3 0-.7.1-.9.4-.2.2-.4.6-.4.9v2.5c0 .7.6 1.3 1.3 1.3h1.2l.3.6c.1.2.2.4.4.6l-.6 1c-.3.6-.1 1.4.5 1.7L54 58c.3.2.6.2 1 .1.3-.1.6-.3.8-.6l.6-1c.5.1.9.1 1.4 0l.6 1c.2.3.4.5.8.6h.3c.2 0 .4-.1.6-.2l2.2-1.3c.6-.4.8-1.1.5-1.7l-.6-1c.3-.4.5-.8.7-1.2h1.2c.3 0 .7-.1.9-.4.2-.2.4-.6.4-.9v-2.5c-.2-.7-.7-1.2-1.4-1.2zm-1.6 3.8c-.3 0-.5.2-.6.4-.2.6-.5 1.1-.9 1.6-.2.2-.2.5-.1.7l.8 1.4-2.2 1.3-.8-1.4c-.1-.2-.3-.3-.5-.3H58c-.6.1-1.2.1-1.8 0-.3-.1-.5.1-.7.3l-.8 1.4-2.2-1.3.8-1.4c.1-.2.1-.5-.1-.7-.4-.5-.7-1-.9-1.6-.1-.3-.3-.4-.6-.4h-1.6V49h1.6c.3 0 .5-.2.6-.4.2-.6.5-1.1.9-1.6.2-.2.2-.5.1-.7l-.8-1.4 2.2-1.3.8 1.4c.1.2.4.4.7.3.6-.1 1.2-.1 1.8 0 .3.1.5-.1.7-.3l.8-1.4 2.2 1.3-.8 1.4c-.1.2-.1.5.1.7.4.5.7 1 .9 1.6.1.3.3.4.6.4h1.6v2.5h-1.7z"></path>
      <path d="M76 41.8c-.1-2-1.8-3.7-3.8-3.7H46.9v-1.9c0-.7-.6-1.3-1.3-1.3h-3.8c-1 0-2 .4-2.7 1.1-.7.7-1.1 1.7-1.1 2.7V66c.1 2 1.7 3.7 3.7 3.8h.5l.9 2.1c0 .1.1.2.2.3 0 0 0 .1.1.1 0 .1.1.1.2.2l.1.1c.1.1.2.1.3.2h.1c.1 0 .2.1.2.1h.1c.1 0 .1 0 .2.1h.4c.3 0 .5-.1.8-.2l6.6-3h14.9v1.9c0 .7.6 1.3 1.3 1.3h3.8c2.1 0 3.8-1.7 3.8-3.8V42c-.2-.1-.2-.1-.2-.2zM40 37c.5-.5 1.1-.7 1.8-.7h3.8v26h-3.8c-.9 0-1.8.3-2.5 1V38.8c0-.7.2-1.3.7-1.8zm21.2 27.1l-1.3-2.9 4.1-.3.1.3-2.9 2.9zm-2.6-2.7l.5 1.2-4 1.8c-.2.1-.4.3-.4.5s.1.4.3.6c.2.1.4.2.6.1l4-1.8.5 1.2-8.3 3.8-3.2 1.5-.5-1.2 4.6-2.1c.3-.1.4-.5.3-.8-.1-.3-.5-.5-.8-.3L47.6 68l-.6-1.4 11.6-5.2zM45.2 71.7c-.3.1-.7 0-.8-.3l-1.1-2.3c-.1-.3 0-.7.3-.8l2.3-1.1.8 1.7.8 1.7-2.3 1.1zm9.8-3.1l6.2-2.8s.1 0 .1-.1c0 0 .1 0 .1-.1l3.5-3.5c.4-.4.5-1 .3-1.5l-.2-.3c-.2-.5-.7-.8-1.3-.7l-4.9.3c-.1 0-.1 0-.2.1L43 67.1c-.6.3-1 .8-1.1 1.5-1.4 0-2.6-1.1-2.7-2.5V66c0-1.4 1.2-2.4 2.5-2.4h3.8c.7 0 1.3-.6 1.3-1.3V39.4h25.3c1.4 0 2.5 1.1 2.5 2.4 0 .7-.2 1.3-.7 1.8-.5.5-1.2.8-2 .8h-3.6c-.7 0-1.3.6-1.3 1.3v22.8H55zm17.2 3.1h-3.8v-26H72c1 0 1.9-.4 2.7-1v24.5c0 1.4-1.1 2.5-2.5 2.5z"></path>
    </g>
  </symbol>
  <symbol viewBox="0 0 108 108" xmlns="http://www.w3.org/2000/svg" id="work-5">
    <circle fill="var(--circle)" cx="54" cy="54" r="54"></circle>
    <path fill="var(--text)" d="M79.3 14.1v14.3H45.4l-3.2 17.9c3.9-3.9 8.9-5.8 15.2-5.8 7.9 0 14.3 2.5 19.1 7.4 4.8 5 7.2 11.5 7.2 19.6 0 8.7-2.9 15.8-8.7 21.4-5.8 5.6-13.3 8.4-22.4 8.4-8.7 0-15.7-2.2-21.2-6.6-5.4-4.5-8.4-10.9-8.9-19.1H39c.4 3.6 1.8 6.6 4.2 8.9 2.5 2.2 5.6 3.3 9.3 3.3 4.2 0 7.6-1.5 10.3-4.4 2.7-3 4-6.8 4-11.4s-1.3-8.3-3.9-11.1-6.1-4.1-10.5-4.1c-5.3 0-9.4 2.3-12.4 6.8H25l8-45.4h46.3z"></path>
    <g fill="var(--icon)">
      <path d="M70.9 52.1l-1.1-2.6c-.1-.2-.1-.3-.2-.5-.5-.9-1.3-1.5-2.2-1.8-.9-.3-2-.3-2.9.1l-.4.2-.6-1.3-.4-.9c-.4-.8-1-1.4-1.8-1.7-.8-.3-1.7-.3-2.5.1l-1.5.6c-.3-.4-.6-.7-1-.9-.8-.4-1.8-.4-2.8.1l-1 .5-1.3-3.1c-.5-1.2-1.6-2.1-2.8-2.4-1.2-.2-2.3.1-3.1.9-1.2 1.2-1.6 2.9-.9 4.5l5.1 11.7c-.4-.1-.9-.1-1.3-.1-1.2 0-2.3.4-3 1l-.1.1c-.7.7-1.1 1.6-1 2.6.1 1.2.7 2.4 2 3.4l10.5 8.3c.1.1.3.2.5.2.1 0 .2 0 .3-.1l15-6.6c.3-.1.4-.4.5-.6l.1-1.3c0-3.6-.6-7.2-2.1-10.4zm.4 10.2l-.1.9L57 69.4l-10.1-8c-.9-.7-1.4-1.6-1.4-2.3 0-.5.1-.9.5-1.3l.1-.1c.9-.9 3.2-1 4.3-.1L53 60c.1.1.3.2.5.2s.4-.1.5-.2c.3-.3.3-.8 0-1.1l-2.5-2.4-5.8-13.3c-.5-1.2 0-2.2.6-2.8.5-.4 1.1-.6 1.8-.5.7.1 1.4.7 1.7 1.5l4.4 10c.1.3.4.5.7.5.1 0 .2 0 .3-.1.4-.2.6-.6.4-1l-2.4-5.5 1-.5c.7-.3 1.2-.3 1.5-.1.3.1.5.4.7.8l2.6 5.9c.1.3.4.5.7.5.1 0 .2 0 .3-.1.4-.2.6-.6.4-1L58 45.6l1.4-.6c.4-.2.9-.2 1.3 0s.8.5 1 .9l3.1 7c.1.3.4.5.7.5.1 0 .2 0 .3-.1.4-.2.6-.6.4-1l-1.5-3.4.4-.2c1.2-.5 2.5-.1 3.1 1.1.1.1.1.2.2.3l1.1 2.6c1.4 3 2 6.3 1.8 9.6z"></path>
      <path d="M68.3 62.1l-.7.3c-.4.2-.6.6-.4 1 .1.3.4.5.7.5.1 0 .2 0 .3-.1l.7-.3c.4-.2.6-.6.4-1-.2-.4-.6-.6-1-.4zm-3 1.3l-8 3.5c-.4.2-.6.6-.4 1 .1.3.4.5.7.5.1 0 .2 0 .3-.1l8-3.5c.4-.2.6-.6.4-1-.2-.4-.6-.6-1-.4zm-19.7-27c.1.4.4.6.7.6h.2c.4-.1.7-.5.6-.9l-.5-2.5c-.1-.4-.5-.7-.9-.6-.4.1-.7.5-.6.9l.5 2.5zm-6.5.2c.2-.4.1-.8-.2-1l-.5-.3c-.4-.2-.8-.1-1 .2-.2.4-.1.8.2 1l.5.3c.1.1.3.1.4.1.2 0 .5-.1.6-.3zm1.5 1.9l1.6 1.1c.1.1.3.1.4.1.2 0 .5-.1.6-.3.2-.3.1-.8-.2-1l-1.6-1.1c-.3-.2-.8-.1-1 .2-.3.3-.2.7.2 1zm2 4.8c-.1-.4-.5-.7-.9-.6l-2.5.5c-.4.1-.7.5-.6.9.1.4.4.6.7.6h.2l2.5-.5c.4-.1.6-.5.6-.9zm1.9 3.9c-.3-.2-.8-.1-1 .2L42 49.5c-.2.3-.1.8.2 1 .1.1.3.1.4.1.2 0 .5-.1.6-.3l1.4-2.1c.3-.3.2-.8-.1-1zm8.3-6.2c.1.4.4.6.7.6h.2l1.7-.3c.4-.1.7-.5.6-.9-.1-.4-.5-.7-.9-.6l-1.7.3c-.5.1-.7.5-.6.9zm5.4-.4h.2l.5-.1c.4-.1.7-.5.6-.9-.1-.4-.5-.7-.9-.6l-.5.1c-.4.1-.7.5-.6.9 0 .3.4.6.7.6zm-7.7-2.9c.1.1.3.1.4.1.2 0 .5-.1.6-.3l1.4-2.1c.2-.3.1-.8-.2-1-.3-.2-.8-.1-1 .2l-1.4 2.1c-.3.3-.2.8.2 1z"></path>
    </g>
  </symbol>
  <symbol viewBox="0 0 110 108" xmlns="http://www.w3.org/2000/svg" id="work-6">
    <circle fill="var(--circle)" cx="56" cy="54" r="54"></circle>
    <path fill="var(--text)" d="M84.3 33.3H67.7c-1.6-6.5-5.5-9.7-11.6-9.7-9.6 0-15 8.5-16.4 25.6 4.8-6.5 11.2-9.7 19.2-9.7 7.9 0 14.3 2.7 19.3 8 5.1 5.3 7.6 12.1 7.6 20.4.1 8.9-2.8 16.3-8.6 22-5.7 5.7-13.1 8.6-22 8.6-10.2 0-18.1-3.7-23.9-11.2-5.7-7.5-8.6-18-8.6-31.5 0-14.2 3-25.3 9-33.3 6-8.1 14.2-12.2 24.6-12.2 7.8 0 14.1 2 18.9 6 5 4 8 9.7 9.1 17zM54.9 52.5c-3.9 0-7.2 1.5-9.7 4.6-2.5 3-3.8 6.8-3.8 11.4 0 4.7 1.3 8.5 3.8 11.4s5.8 4.4 9.8 4.4 7.3-1.5 10-4.6c2.6-3 3.9-6.8 3.9-11.4 0-4.6-1.3-8.4-3.9-11.3-2.7-3-6-4.5-10.1-4.5z"></path>
    <g fill="var(--icon)">
      <path d="M48.3 63.6h-1.4v1.3h5.7v-1.3h-2.9l1.5-5.1h1.4v-1.3h-12c-.7 0-1.3-.6-1.3-1.3v-1.3h13.3v-1.3H39.3V35.7c0-.7.6-1.3 1.3-1.3h26.6c.7 0 1.3.6 1.3 1.3v5.1h1.3v-5.1c0-1.4-1.1-2.5-2.5-2.5H40.5c-1.4 0-2.5 1.1-2.5 2.5V56c0 1.4 1.1 2.5 2.5 2.5h9.3l-1.5 5.1z"></path>
      <path d="M65.9 39.5v1.3h1.3v-1.9c0-.3-.3-.6-.6-.6H41.2c-.3 0-.6.3-.6.6v7.6c0 .3.3.6.6.6h11.4v-1.3H41.8v-6.3h24.1zM48.8 52.2V49c0-.3-.3-.6-.6-.6h-7c-.3 0-.6.3-.6.6v3.2h1.3v-2.5h5.7v2.5h1.2zM50 49v3.2h1.3v-2.5h1.3v-1.3h-1.9c-.4 0-.7.3-.7.6zm-9.5-13.3h1.3V37h-1.3v-1.3zm2.6 0h1.3V37h-1.3v-1.3zm2.5 0h1.3V37h-1.3v-1.3z"></path>
      <path d="M71.6 47.1v-3.2c0-1-.9-1.9-1.9-1.9h-14c-1 0-1.9.9-1.9 1.9v19c0 1 .9 1.9 1.9 1.9h8.9v-1.3h-8.9c-.3 0-.6-.3-.6-.6v-.6h9.5V61h-9.5V43.9c0-.3.3-.6.6-.6h13.9c.3 0 .6.3.6.6v3.2h1.4z"></path>
      <path d="M57 44.6h1.9v1.3H57v-1.3zm3.2 0h1.9v1.3h-1.9v-1.3zm3.1 0h1.9v1.3h-1.9v-1.3zm3.2 0h1.9v1.3h-1.9v-1.3zm-8.9 3.8h8.2v-1.3H57c-.3 0-.6.3-.6.6v4.4c0 .3.3.6.6.6h7.6v-1.3h-7v-3zm7 6.9V54H57c-.3 0-.6.3-.6.6V59c0 .3.3.6.6.6h7.6v-1.3h-7v-3.2h7zm9.5-6.9h-6.3c-1 0-1.9.9-1.9 1.9V63c0 1 .9 1.9 1.9 1.9h6.3c1 0 1.9-.9 1.9-1.9V50.3c0-1.1-.9-1.9-1.9-1.9zm.6 14.5c0 .3-.3.6-.6.6h-6.3c-.3 0-.6-.3-.6-.6v-.6h7.6v.6zm0-1.9h-7.6V50.3c0-.3.3-.6.6-.6H74c.3 0 .6.3.6.6V61z"></path>
      <path d="M72.8 50.9H69c-.3 0-.6.3-.6.6V54c0 .3.3.6.6.6h3.8c.3 0 .6-.3.6-.6v-2.5c.1-.3-.2-.6-.6-.6zm-.6 2.5h-2.5v-1.3h2.5v1.3zm.6 2.6H69c-.3 0-.6.3-.6.6v2.5c0 .3.3.6.6.6h3.8c.3 0 .6-.3.6-.6v-2.5c.1-.3-.2-.6-.6-.6zm-.6 2.5h-2.5v-1.3h2.5v1.3z"></path>
    </g>
  </symbol>
  <symbol viewBox="0 0 108 108" xmlns="http://www.w3.org/2000/svg" id="work-7">
    <circle fill="var(--circle)" cx="54" cy="54" r="54"></circle>
    <path fill="var(--text)" d="M81.7 14.8v13.7c-9 9.9-15.6 20.1-19.8 30.7-4.1 10.5-6.5 22.7-7.3 36.9H37.5c0-9.8 2.8-21.5 8.3-35 5.6-13.6 12-24 19.1-31.2H25.8v-15h55.9z"></path>
    <path fill="var(--icon)" d="M70.6 36.6H37.4c-1 0-1.8.8-1.8 1.8v26.1c0 1 .8 1.8 1.8 1.8h16v.3c0 .6.1 1.3.4 1.8l1.3 2.7v2.2h10.7v-2.2l.9-1.3c.5-.7.8-1.6.8-2.5v-1.2h3c1 0 1.8-.8 1.8-1.8V38.4c.1-1-.7-1.8-1.7-1.8zm-33.2 1.2h33.3c.3 0 .6.3.6.6v5.3H36.8v-5.3c0-.4.2-.6.6-.6zm21.4 13c-1 0-1.8.8-1.8 1.8v.6h-7.1v-5.9h19v5.9h-8.3v-.6c-.1-1-.9-1.8-1.8-1.8zM57 60.5c-.8-.8-1.9-1.4-3.2-1.4-.9 0-1.6.7-1.6 1.6 0 .2.1.5.2.7l.7 1.3h-3.2v-5.9H57v3.7zm9.5 7c0 .6-.2 1.3-.6 1.8l-1.2 1.6v1.4h-8.3V71l-1.5-3c-.2-.4-.3-.9-.3-1.3v-2.4c0-.7-.2-1.3-.5-1.9l-.7-1.4v-.2c0-.2.2-.4.4-.4 1.7 0 3.1 1.4 3.1 3.1v2.2h1.2V52.6c0-.3.3-.6.6-.6s.6.3.6.6v9.5h1.2v-2.4c0-.3.3-.6.6-.6s.6.3.6.6v2.4h1.2v-2.4c0-.3.3-.6.6-.6s.6.3.6.6v2.4h1.2v-1.2c0-.3.3-.6.6-.6s.6.3.6.6v6.6zm-.6-8.3c-.2 0-.5 0-.7.1-.2-.8-.9-1.3-1.7-1.3-.5 0-.9.2-1.2.5-.3-.4-.7-.5-1.2-.5-.2 0-.4 0-.6.1v-1.3h8.3v5.9h-1.2v-1.8c.1-.9-.7-1.7-1.7-1.7zm4.7 5.9h-3v-1.2H70v-8.3h-9.5v-1.2H70v-8.3H48.7v8.3H57v1.2h-8.3v8.3h4.7v1.2h-16c-.3 0-.6-.3-.6-.6V44.9h34.4v19.6c0 .3-.2.6-.6.6z"></path>
    <path fill="var(--icon)" d="M41.5 39H38v3.6h3.6V39zm-1.2 2.3h-1.2v-1.2h1.2v1.2zm6-2.3h-3.6v3.6h3.6V39zm-1.2 2.3h-1.2v-1.2h1.2v1.2zM51 39h-3.6v3.6H51V39zm-1.2 2.3h-1.2v-1.2h1.2v1.2zm1.2 7.2h1.2v1.2H51v-1.2zm2.4 0h14.2v1.2H53.4v-1.2zm8.3 2.3h5.9V52h-5.9v-1.2zm-10.7 0h4.8V52H51v-1.2zm-11.8 3.6h8.3v-8.3h-8.3v8.3zm1.1-7.1h5.9v5.9h-5.9v-5.9z"></path>
    <path fill="var(--icon)" d="M42.7 50.6l-.7-.8-.8.8 1.6 1.6 3.4-3.4-.9-.8-2.6 2.6zm-3.5 13.3h8.3v-8.3h-8.3v8.3zm1.1-7.1h5.9v5.9h-5.9v-5.9z"></path>
    <path fill="var(--icon)" d="M42.7 60.1l-.7-.8-.8.8 1.6 1.6 3.4-3.4-.8-.8-2.7 2.6z"></path>
  </symbol>
  <symbol viewBox="0 0 108 108" xmlns="http://www.w3.org/2000/svg" id="work-8">
    <circle fill="var(--circle)" cx="54" cy="54" r="54"></circle>
    <path fill="var(--text)" d="M38.6 50.5c-3.9-1.3-6.9-3.4-9-6.3-2-3-3-6.5-3-10.6 0-6.4 2.6-11.7 7.8-15.8 5.2-4.2 11.8-6.3 19.7-6.3 8 0 14.5 2.1 19.7 6.3 5.2 4.1 7.8 9.4 7.8 15.8 0 8.7-4 14.3-11.9 17 4.8 1.2 8.5 3.5 11.2 7.1 2.7 3.5 4.1 7.8 4.1 12.9 0 7.5-2.8 13.5-8.5 18.1-5.6 4.5-13.1 6.8-22.3 6.8s-16.7-2.3-22.3-6.8C26.1 84 23.2 78 23.2 70.5c0-5.1 1.4-9.4 4.1-12.9 2.8-3.6 6.5-6 11.3-7.1zM54 23.9c-3.7 0-6.6 1-8.9 2.9s-3.4 4.5-3.4 7.7c0 3.4 1.1 6 3.4 8.1 2.3 2 5.3 2.9 9 2.9 3.8 0 6.8-1 9-2.9 2.3-2 3.4-4.7 3.4-8.1s-1.1-6-3.4-7.8c-2.1-1.8-5.2-2.8-9.1-2.8zm-.3 32.5c-4.1 0-7.4 1.2-9.9 3.6-2.6 2.4-3.9 5.5-3.9 9.4 0 4 1.3 7.2 3.9 9.7 2.7 2.4 6.1 3.6 10.3 3.6 4.3 0 7.7-1.2 10.3-3.6 2.7-2.4 4-5.6 4-9.6 0-3.9-1.4-7.1-4.1-9.5-2.8-2.3-6.3-3.6-10.6-3.6z"></path>
    <path fill="var(--icon)" d="M73.8 51c-.2-.2-.4-.3-.7-.2l-6.4 1.3c-.3.1-.5.3-.6.5-.1.3 0 .5.2.7l.9.9-3.4 3.4-2.6-2.6c-.1-.1-.3-.2-.5-.2s-.4.1-.5.2L57 58.2l1.2-4.3c.3-1.1.1-2.2-.6-3-.4-.5-.9-.9-1.5-1.2l1-2.8h.8c2.1 0 4.2-.8 5.9-2.1l.2-.1c.9-.7 1-2 .3-2.9-.3-.4-.8-.7-1.4-.8-.6-.1-1.1.1-1.5.5l-.4.1c-.3.2-.6.5-1 .6-1.1.6-2.6.3-3.5-.6 1.4-.4 2.4-1.7 2.4-3.2 0-1.9-1.5-3.4-3.4-3.4s-3.4 1.5-3.4 3.4c0 .7.2 1.4.6 2-.8.2-1.5.6-2 1.1l-.1.1c-1.3 1.6-3.1 2.8-5 3.3-.5.2-1 .5-1.2 1l-1.5-1.5c-.7-.7-1.7-.7-2.4 0l-2 2-2 2c-.3.3-.5.8-.5 1.2 0 .5.2.9.5 1.2l5.5 5.5c.3.3.8.5 1.2.5.5 0 .9-.2 1.2-.5l2.1-2.1-1 2.6c-.1.4 0 .8.4 1h.3c.3 0 .6-.2.7-.5l2.4-6.4h5.5c.6 0 1.2.3 1.6.8.4.5.5 1.1.3 1.7L55 59.5c-.1.3-.3.5-.6.5s-.4-.1-.5-.2c-.1-.1-.2-.3-.1-.5l.9-5.6c0-.2 0-.4-.2-.6-.1-.2-.3-.3-.6-.3h-1.8c-.3 0-.5.2-.7.4 0 .1-4.3 8.6-5.8 11.5-.1.3-.5.5-.8.4-.2 0-.4-.2-.5-.3-.1-.2-.1-.4-.1-.6l.5-1.2c.1-.4 0-.8-.4-1-.4-.1-.8 0-1 .4l-.5 1.2c-.2.6-.2 1.3.2 1.9.3.6.9 1 1.6 1.1h.3c.8 0 1.6-.5 2-1.2 1.3-2.5 4.7-9.3 5.6-11.1h.4l-.6 4.7c-.1.6.1 1.2.5 1.7.3.3.6.5 1 .6l-8.3 8.3c-.1.1-.2.3-.2.5s.1.4.2.5l2.1 2.1c.1.1.3.2.5.2s.4-.1.5-.2l4.1-4.1c.3-.3.3-.8 0-1-.3-.3-.8-.3-1 0l-3.6 3.6-1.1-1.1 13.6-13.6 2.6 2.6c.1.1.3.2.5.2s.4-.1.5-.2l4.4-4.4c.3-.3.3-.8 0-1l-.4-.4 3.9-.8-.8 3.9-.6-.6c-.3-.3-.8-.3-1 0l-6 6-2.6-2.6c-.3-.3-.8-.3-1 0l-4.2 4.2c-.3.3-.3.8 0 1 .3.3.8.3 1 0l3.7-3.7 2.6 2.6c.3.3.8.3 1 0l6-6 1.1 1.1c.2.2.5.3.7.2.3-.1.5-.3.5-.6l1.3-6.4c.2-.2.2-.4 0-.6zM55.5 36.5c1 0 1.9.9 1.9 1.9 0 1-.9 1.9-1.9 1.9s-1.9-.9-1.9-1.9c0-1.1.9-1.9 1.9-1.9zm-7.3 13.1l-.9-.9c.4-.1.9-.3 1.3-.5l-.4 1.4zm-2.5-2.5c-.1-.3.1-.6.4-.7 1.2-.4 2.4-.9 3.4-1.6l-.5 1.6c-.8.5-1.7.8-2.6 1.1h-.1c-.1 0-.3 0-.4-.1l-.2-.2v-.1zm-4.2-1.7s.1-.1.2-.1.1 0 .2.1l2.7 2.7c.1.2.3.3.4.4l2.3 2.3c.1.1.1.2 0 .3l-1.5 1.5-1.6-1.6.3-.3c.3-.3.3-.8 0-1L42.9 48c-.3-.3-.8-.3-1 0l-.3.3-1.4-1.4 1.3-1.5zm1.1 5.2c-.1.1-.2.1-.2.1s-.1 0-.2-.1l-.2-.2c-.1-.1-.1-.2-.1-.2s0-.1.1-.2l.4-.4.6.6-.4.4zm.8 4.6c-.1.1-.1.1-.2.1s-.1 0-.2-.1l-5.5-5.5c-.1-.1-.1-.1-.1-.2 0 0 0-.1.1-.2l1.5-1.5 1.5 1.5c-.1.2-.2.5-.2.8 0 .5.2.9.5 1.2l.2.2c.3.3.8.5 1.2.5.3 0 .5-.1.8-.2l1.7 1.7-1.3 1.7zM54 49.4h-4.2l1.5-5.9c.3-1 1.2-1.8 2.3-1.8.7 0 1.3.3 1.7.8 1.4 1.5 3.6 1.9 5.4 1 .4-.2.9-.5 1.2-.8l.2-.2c.1-.1.3-.1.4-.1.2 0 .3.1.4.2.2.2.1.6-.1.8l-.2.1c-1.4 1.2-3.1 1.8-4.9 1.8-.4 0-.8 0-1.2-.1-.4-.1-.7.2-.8.5l-1.3 3.6H54z"></path>
    <path fill="var(--icon)" d="M54.3 65.3c-.2 0-.4.1-.5.2-.1.1-.2.3-.2.5s.1.4.2.5c.1.1.3.2.5.2s.4-.1.5-.2c.1-.1.2-.3.2-.5s-.1-.4-.2-.5c-.1-.1-.3-.2-.5-.2zm-9.2-4.8c.2 0 .4-.1.5-.2.1-.1.2-.3.2-.5s-.1-.4-.2-.5c-.1-.1-.3-.2-.5-.2s-.4.1-.5.2c-.1.1-.2.3-.2.5s.1.4.2.5c.1.2.3.2.5.2z"></path>
  </symbol>
  <symbol viewBox="0 0 109 108" xmlns="http://www.w3.org/2000/svg" id="work-9">
    <circle fill="var(--circle)" cx="54" cy="54" r="54"></circle>
    <path fill="var(--text)" d="M25.9 73.4h15.8c1.3 6.2 5.1 9.4 11.2 9.4 2.9 0 5.3-.8 7.3-2.3 2-1.6 3.5-3.7 4.6-6.6 1-2.8 1.8-5.3 2.2-7.6.5-2.3.8-5 1.1-8.1-4.4 6.3-10.3 9.5-17.5 9.5-7.6 0-13.8-2.5-18.7-7.6-4.8-5.1-7.3-11.5-7.3-19.4 0-8.3 2.8-15.3 8.4-20.8 5.6-5.6 12.6-8.4 21.1-8.4 5.5 0 10.2 1.2 14.3 3.5 4.1 2.3 7.3 5.3 9.6 9.2s3.9 8.1 5 12.6 1.6 9.4 1.6 14.5c0 5.3-.5 10.4-1.6 15.3s-2.8 9.6-5.1 14-5.5 8-9.8 10.8c-4.3 2.7-9.3 4-15 4-7.5 0-13.7-2-18.5-6-5-3.9-7.9-9.3-8.7-16zm27.7-48.3c-3.7 0-6.7 1.4-9.2 4.3-2.4 2.8-3.6 6.4-3.6 10.6 0 4.4 1.2 8 3.6 10.8s5.5 4.2 9.4 4.2c3.7 0 6.8-1.4 9.2-4.2 2.5-2.8 3.7-6.4 3.7-10.6s-1.2-7.9-3.7-10.8-5.6-4.3-9.4-4.3z"></path>
    <path fill="var(--icon)" d="M36.2 45.4c0-.5.2-.9.5-1.3.3-.3.8-.5 1.3-.5h6.5v-1.2H38c-.8 0-1.5.3-2.1.9-.6.6-.9 1.3-.9 2.1V49h1.2v-3.6zm13.9-8.9c-.4 0-.8.1-1.2.4-.3.2-.6.6-.8.9-.1.4-.1.8 0 1.2.1.4.3.8.6 1.1.3.3.7.5 1.1.6.4.1.8 0 1.2-.1.4-.2.7-.4.9-.8.2-.3.4-.7.4-1.2 0-.6-.2-1.1-.6-1.5-.5-.3-1-.6-1.6-.6zm0 3c-.2 0-.3-.1-.5-.2-.1-.1-.3-.2-.3-.4-.1-.2-.1-.3-.1-.5s.1-.3.2-.5c.1-.1.3-.2.5-.2s.4 0 .5.1c.2.1.3.2.4.3.1.1.2.3.2.5s-.1.5-.3.6c-.1.2-.4.3-.6.3z"></path>
    <path fill="var(--icon)" d="M68.2 31.2H55.6c-.6 0-1.2.2-1.8.5-.5.3-1 .7-1.3 1.3l-.7 1.2h-4.4c-.5 0-.9.2-1.3.5-.3.3-.5.8-.5 1.3v10.7c0 .5.2.9.5 1.3.3.3.8.5 1.3.5H51v2.4c0 .1 0 .2.1.3.1.1.1.2.2.2s.2.1.3.1c.1 0 .2-.1.3-.1l3.4-2.8h8.1c.5 0 .9-.2 1.3-.5.3-.3.5-.8.5-1.3v-8.4c1.3-.2 2.4-.9 3.3-1.8l.1-.1c.1-.1.1-.1.1-.2v-4.4c0-.2-.1-.3-.2-.4 0-.2-.1-.3-.3-.3zm-4.1 15.4c0 .2-.1.3-.2.4-.1.1-.3.2-.4.2h-8.3c-.1 0-.3 0-.4.1l-2.6 2.2v-1.7c0-.2-.1-.3-.2-.4-.1-.1-.3-.2-.4-.2h-4.2c-.2 0-.3-.1-.4-.2-.1-.1-.2-.3-.2-.4v-.9l5.3-3.2 5 3.4c.1.1.2.1.3.1.1 0 .2 0 .3-.1l3.3-1.6 3 2v.3zm0-1.7l-2.6-1.8c-.1-.1-.2-.1-.3-.1-.1 0-.2 0-.3.1l-3.3 1.6-5.1-3.4c-.1-.1-.2-.1-.3-.1-.1 0-.2 0-.3.1l-5 3v-8.5c0-.2.1-.3.2-.4.1-.1.3-.2.4-.2h9.3l-1.9 1.9c-.4.4-.6.9-.6 1.5 0 .5.2 1.1.6 1.5.4.4.9.6 1.5.6.5 0 1.1-.2 1.5-.6l2.9-2.9c1 .7 2.2 1 3.5 1v6.7zm3.5-9.2c-.9.8-2 1.3-3.1 1.4-1.2.1-2.4-.2-3.3-.9l-.4-.2c-.1-.1-.3-.1-.4-.1-.1 0-.3.1-.4.2l-3.3 3.3c-.1.1-.3.2-.6.3-.2 0-.4 0-.6-.2-.1-.1-.2-.2-.2-.3-.1-.1-.1-.2-.1-.4 0-.1 0-.3.1-.4 0-.1.1-.2.2-.3l3-3 1.2-1.2-.8-.8-1 1h-4.6l.4-.6c.2-.4.5-.6.9-.8.4-.2.8-.3 1.2-.3h12v3.3z"></path>
    <path fill="var(--icon)" d="M67 50.2H56.3c-.5 0-.9.2-1.3.5-.3.3-.5.8-.5 1.3v3.3l-2.2 2.2c-.1.1-.1.2-.2.3v.3c0 .1.1.2.2.3.1.1.2.1.3.1h1.8v.6c0 .5.2.9.5 1.3.3.3.8.5 1.3.5H67c.5 0 .9-.2 1.3-.5.3-.3.5-.8.5-1.3V52c0-.5-.2-.9-.5-1.3-.3-.3-.8-.5-1.3-.5zm.6 8.9c0 .2-.1.3-.2.4-.1.1-.3.2-.4.2H56.3c-.2 0-.3-.1-.4-.2-.1-.1-.2-.3-.2-.4v-1.2c0-.2-.1-.3-.2-.4-.1-.1-.3-.2-.4-.2h-.9l1.4-1.4c.1-.1.1-.1.1-.2V52c0-.2.1-.3.2-.4.1-.1.3-.2.4-.2H67c.2 0 .3.1.4.2.1.1.2.3.2.4v7.1z"></path>
    <path fill="var(--icon)" d="M56.9 52.6h5.9v1.2h-5.9v-1.2zm7.2 0h2.4v1.2h-2.4v-1.2zm-7.2 4.7h9.5v1.2h-9.5v-1.2zm0-2.4h9.5v1.2h-9.5v-1.2zM37.3 44.8h1.2V46h-1.2v-1.2zm2.4 0h1.2V46h-1.2v-1.2zm2.4 0h1.2V46h-1.2v-1.2zm-4.8 2.4h7.1v1.2h-7.1v-1.2zM35 60.9h10.7c.5 0 .9-.2 1.3-.5.3-.3.5-.8.5-1.3v-2.4h1.8c.1 0 .2 0 .3-.1.1-.1.2-.2.2-.3 0-.1.1-.2 0-.3 0-.1-.1-.2-.2-.3l-2.2-2.2V52c0-.5-.2-.9-.5-1.3-.3-.3-.8-.5-1.3-.5H35c-.5 0-.9.2-1.3.5-.3.3-.5.8-.5 1.3v7.1c0 .5.2.9.5 1.3.3.3.8.5 1.3.5zm-.6-8.9c0-.2.1-.3.2-.4.1-.1.3-.2.4-.2h10.7c.2 0 .3.1.4.2.1.1.2.3.2.4v2c0 .1.1.1.1.2l1.4 1.4h-.9c-.2 0-.3.1-.4.2-.1.1-.2.3-.2.4v3c0 .2-.1.3-.2.4-.1.1-.3.2-.4.2H35c-.2 0-.3-.1-.4-.2-.1-.1-.2-.3-.2-.4V52z"></path>
    <path fill="var(--icon)" d="M35.6 52.6h1.2v1.2h-1.2v-1.2zm0 2.3h1.2v1.2h-1.2v-1.2zm0 2.4h1.2v1.2h-1.2v-1.2zm2.3-4.7H45v1.2h-7.1v-1.2zm0 2.3H45v1.2h-7.1v-1.2zm0 2.4H45v1.2h-7.1v-1.2zm25.6 4.8H53c-.3 0-.7.1-1 .2s-.6.3-.8.6c-.1.1-.3.2-.5.3-.2.1-.4.1-.5.1h-3.1c-.2 0-.4 0-.5-.1-.2-.1-.3-.2-.5-.3-.2-.2-.5-.4-.8-.6s-.7-.2-1-.2H33.8c-.2 0-.3.1-.4.2-.1.1-.2.3-.2.4v1.8c0 .6.3 1.2.7 1.7.4.4 1 .7 1.7.7h26.1c.6 0 1.2-.3 1.7-.7.4-.4.7-1 .7-1.7v-1.8c0-.2-.1-.3-.2-.4-.1-.2-.3-.2-.4-.2zm-.6 2.3c0 .3-.1.6-.3.8-.2.2-.5.3-.8.3H35.6c-.3 0-.6-.1-.8-.3-.2-.2-.3-.5-.3-.8v-1.2h9.8c.2 0 .4 0 .5.1.2.1.3.2.5.3.2.2.5.4.8.6.3.1.7.2 1 .2h3.1c.3 0 .7-.1 1-.2.3-.1.6-.3.8-.6.1-.1.3-.2.5-.3.2-.1.4-.1.5-.1h9.8v1.2z"></path>
  </symbol>
  <symbol viewBox="0 0 108 108" xmlns="http://www.w3.org/2000/svg" id="work-10">
    <circle fill="var(--circle)" cx="54" cy="54" r="54"></circle>
    <path fill="var(--text)" d="M41.041 26.5V86H28.206V47.325h-14.45V38.4h1.53c9.01 0 14.28-3.967 15.81-11.9h9.945zm30.062-.34c3.286 0 6.205.623 8.755 1.87 2.606 1.247 4.703 2.862 6.29 4.845 1.586 1.983 2.89 4.335 3.91 7.055 1.076 2.72 1.813 5.44 2.21 8.16.396 2.72.594 5.582.594 8.585 0 9.463-1.926 16.887-5.78 22.27-3.853 5.383-9.151 8.075-15.894 8.075-6.914 0-12.326-2.663-16.236-7.99-3.853-5.383-5.78-12.835-5.78-22.355 0-3.797.369-7.367 1.106-10.71.736-3.4 1.898-6.63 3.485-9.69 1.586-3.117 3.853-5.582 6.8-7.395 3.003-1.813 6.516-2.72 10.54-2.72zm-.085 9.945c-1.587 0-2.975.34-4.165 1.02-1.19.68-2.154 1.7-2.89 3.06a31.724 31.724 0 0 0-1.7 3.825c-.397 1.19-.68 2.777-.85 4.76-.17 1.927-.284 3.4-.34 4.42v4.08c0 13.317 3.343 19.975 10.03 19.975 6.573 0 9.86-6.857 9.86-20.57 0-7.083-.794-12.268-2.38-15.555-1.587-3.343-4.109-5.015-7.566-5.015z"></path>
    <path fill="var(--icon)" d="M72.406 48.406V30.594H47.47v5.937h-3.29a3.544 3.544 0 0 0 .915-2.375 3.566 3.566 0 0 0-3.563-3.562 3.566 3.566 0 0 0-3.562 3.562 3.55 3.55 0 0 0 1.218 2.676 5.35 5.35 0 0 0-3.593 5.043v1.781a2.377 2.377 0 0 0 2.375 2.375v6.235c0 .32.079.62.208.89h-2.583v4.75h2.583c-.132.373-.208.77-.208 1.188a3.55 3.55 0 0 0 1.218 2.675 5.35 5.35 0 0 0-3.593 5.044v.593h33.25v-.594a5.35 5.35 0 0 0-3.593-5.043 3.552 3.552 0 0 0 1.218-2.675c0-.417-.076-.816-.208-1.188h6.145v-4.75h-3.82l-2.85-4.75h6.67zm-23.75-16.625H71.22V47.22H48.656v-7.125h1.782c.773 0 1.426-.498 1.671-1.188h7.235V32.97h-9.5v3.562h-1.188v-4.75zm-3.77 21.375c.129-.27.208-.57.208-.89V40.094h2.375v8.312h6.67l-2.85 4.75h-6.404zm10.638-4.75h1.584l-2.85 4.75h-1.584l2.85-4.75zm2.632.56v4.19h-2.514l2.514-4.19zm1.188-.56h1.187v4.75h-1.187v-4.75zm2.375.56l2.514 4.19h-2.514v-4.19zm-9.61-11.247a1.78 1.78 0 0 0-1.078-1.078v-2.485h7.125v3.563H52.11zM41.531 31.78a2.377 2.377 0 0 1 2.375 2.375 2.377 2.377 0 0 1-2.375 2.375 2.377 2.377 0 0 1-2.375-2.375 2.377 2.377 0 0 1 2.375-2.375zm-2.375 20.485v-10.39H37.97v2.969a1.189 1.189 0 0 1-1.188-1.188v-1.781a4.16 4.16 0 0 1 4.157-4.156h9.5a.595.595 0 0 1 0 1.187h-6.532v13.36a.892.892 0 0 1-1.781 0V44.25h-1.188v8.016a.892.892 0 0 1-1.78 0zm2.375 4.453a2.377 2.377 0 0 1 2.375 2.375 2.377 2.377 0 0 1-2.375 2.375 2.377 2.377 0 0 1-2.375-2.375 2.377 2.377 0 0 1 2.375-2.375zm-4.708 9.5a4.163 4.163 0 0 1 4.114-3.563h1.188a4.163 4.163 0 0 1 4.114 3.563h-9.416zm7.053-4.45a3.552 3.552 0 0 0 1.218-2.675c0-.417-.076-.816-.208-1.188h3.978c-.132.373-.208.77-.208 1.188 0 1.066.474 2.022 1.218 2.675a5.364 5.364 0 0 0-2.999 2.606 5.367 5.367 0 0 0-2.999-2.606zm10.718-2.675a2.377 2.377 0 0 1-2.375 2.375 2.377 2.377 0 0 1-2.375-2.375 2.377 2.377 0 0 1 2.375-2.375 2.377 2.377 0 0 1 2.375 2.375zm-7.083 7.125a4.163 4.163 0 0 1 4.114-3.563h1.188a4.164 4.164 0 0 1 4.114 3.563H47.51zm7.052-4.45a3.552 3.552 0 0 0 1.218-2.675c0-.417-.076-.816-.208-1.188h3.979c-.132.373-.208.77-.208 1.188a3.55 3.55 0 0 0 1.218 2.675 5.364 5.364 0 0 0-3 2.606 5.367 5.367 0 0 0-2.998-2.606zm8.937.887a4.163 4.163 0 0 1 4.114 3.563h-9.416a4.163 4.163 0 0 1 4.114-3.563H63.5zm-.594-1.187a2.377 2.377 0 0 1-2.375-2.375 2.377 2.377 0 0 1 2.375-2.375 2.377 2.377 0 0 1 2.375 2.375 2.377 2.377 0 0 1-2.375 2.375zm8.313-4.75h-5.665a3.55 3.55 0 0 0-2.648-1.188 3.55 3.55 0 0 0-2.648 1.188h-5.391a3.55 3.55 0 0 0-2.648-1.188 3.55 3.55 0 0 0-2.648 1.188h-5.392a3.55 3.55 0 0 0-2.648-1.188 3.55 3.55 0 0 0-2.648 1.188h-2.102v-2.375H71.22v2.375zM67.2 53.156h-1.584l-2.85-4.75h1.584l2.85 4.75z"></path>
    <path fill="var(--icon)" d="M59.344 43.656v1.188h-1.188v-4.75H56.97v4.75h-1.19v1.187h14.25V37.72h-1.187v7.125h-1.188v-5.938H66.47v5.938h-1.19V42.47h-1.187v2.375h-1.188V41.28H61.72v3.563h-1.19v-1.188h-1.187zm1.187-10.687h1.188v1.187H60.53V32.97zm2.375 0h7.125v1.187h-7.125V32.97zm-2.375 2.375h9.5v1.187h-9.5v-1.187zm-10.687 7.125h1.187v1.187h-1.187V42.47zm0 2.375h1.187v1.187h-1.187v-1.187z"></path>
  </symbol>
  <symbol viewBox="0 0 108 108" xmlns="http://www.w3.org/2000/svg" id="work-11">
    <circle fill="var(--circle)" cx="54" cy="54" r="54"></circle>
    <path fill="var(--text)" d="M43.041 25.5V85H30.206V46.325h-14.45V37.4h1.53c9.01 0 14.28-3.967 15.81-11.9h9.945zm40.007 0V85H70.213V46.325h-14.45V37.4h1.53c9.01 0 14.28-3.967 15.81-11.9h9.945z"></path>
    <path fill="var(--icon)" d="M69.733 59.816L67.2 57.284a11.202 11.202 0 0 0 1.424-5.471c0-6.221-5.06-11.282-11.281-11.282-2.6 0-4.99.893-6.899 2.375H43.85a4.735 4.735 0 0 0 1.619-3.562c0-2.62-2.131-4.75-4.75-4.75-2.62 0-4.75 2.13-4.75 4.75 0 1.495.696 2.829 1.78 3.7-2.376.543-4.155 2.669-4.155 5.206v3.563a4.162 4.162 0 0 0 2.968 3.98v13.238a2.377 2.377 0 0 0 2.376 2.375 2.36 2.36 0 0 0 1.78-.82 2.36 2.36 0 0 0 1.782.82 2.377 2.377 0 0 0 2.375-2.375v-.941l4.996-4.996-.594-.594 1.519-1.519a11.215 11.215 0 0 0 4.173 1.856v3.096l1.434.357-.76 1.269 3.174 3.175 1.267-.762.358 1.434h4.49l.358-1.434 1.268.76 3.174-3.174-.76-1.268 1.434-.358v-4.49l-1.434-.358.76-1.268zm-2.296-8.004c0 5.566-4.527 10.094-10.093 10.094S47.25 57.378 47.25 51.813c0-5.566 4.528-10.094 10.094-10.094s10.093 4.528 10.093 10.093zm-1.78 11.876a2.972 2.972 0 0 1-2.97 2.968 2.972 2.972 0 0 1-2.968-2.969c0-.306.06-.601.15-.889a11.218 11.218 0 0 0 4.02-1.814 2.957 2.957 0 0 1 1.767 2.703zm-19.594-4.403l-1.188 1.188v-4.504h.297c.573 0 1.094-.234 1.47-.611.36 1.083.881 2.092 1.533 3.002l-1.519 1.52-.593-.595zm0-7.472c0 .072.009.142.01.214a2.054 2.054 0 0 0-.901-.215h-.297v-3.859c0-.49.4-.89.89-.89h1.36a11.203 11.203 0 0 0-1.063 4.75zm-4.775-3.19l-.57.569-.569-.57.44-4.528h.259l.44 4.528zm-4.132-9.28a3.566 3.566 0 0 1 3.563-3.562 3.566 3.566 0 0 1 3.562 3.563 3.566 3.566 0 0 1-3.562 3.562 3.566 3.566 0 0 1-3.563-3.562zm1.782 4.75h.459l-.484 4.972 1.806 1.806 1.805-1.806-.483-4.971h7.098a11.357 11.357 0 0 0-1.37 1.781h-2.003a2.08 2.08 0 0 0-2.078 2.078v3.86h-5.344a.594.594 0 0 1-.594-.594v-4.157h-1.188v3.563h-1.78V48.25a4.161 4.161 0 0 1 4.156-4.156zm-4.157 7.72h1.89c.247.689.9 1.187 1.673 1.187h6.828a.892.892 0 0 1 0 1.781H37.75a2.972 2.972 0 0 1-2.969-2.968zM42.5 70.219a1.189 1.189 0 0 1-1.188-1.188V58.344h-1.187V69.03a1.189 1.189 0 0 1-2.375 0V55.97h5.938v13.06a1.19 1.19 0 0 1-1.188 1.188zm2.375-3.809v-4.258l1.188-1.187 2.129 2.129-3.317 3.316zm3.563-4.75l-.942-.941 1.426-1.426c.295.332.61.646.942.941l-1.426 1.426zm20.78.71v2.635l-1.157.289-.317.122-.276.676.77 1.282-1.864 1.863-1.281-.769-.725.295-.363 1.456H61.37l-.29-1.157-.12-.318-.678-.276-1.281.77-1.863-1.864.77-1.282-.298-.724-1.454-.363V63.03c.39.041.786.064 1.188.064.421 0 .836-.028 1.245-.073-.035.22-.058.44-.058.666a4.161 4.161 0 0 0 4.157 4.157 4.161 4.161 0 0 0 4.156-4.156 4.137 4.137 0 0 0-1.957-3.511 11.39 11.39 0 0 0 1.662-1.865L68.237 60l-.77 1.282.3.725 1.452.363zm1.188-24.807a2.972 2.972 0 0 0-2.969-2.97h-2.374a2.972 2.972 0 0 0-2.97 2.97v2.968h5.344a2.972 2.972 0 0 0 2.97-2.968zm-7.125 0c0-.983.8-1.782 1.782-1.782h2.374c.983 0 1.782.8 1.782 1.782s-.8 1.78-1.781 1.78H63.28v-1.78z"></path>
    <path fill="var(--icon)" d="M64.469 36.969h1.187v1.187H64.47V36.97zm2.375 0h1.187v1.187h-1.187V36.97zm-9.5 23.75c4.91 0 8.906-3.996 8.906-8.907 0-4.91-3.995-8.906-8.906-8.906-4.911 0-8.907 3.996-8.907 8.907 0 4.91 3.996 8.906 8.907 8.906zm-2.969-5.938h1.188v4.535a7.587 7.587 0 0 1-1.188-.38V54.78zm-1.188 3.525A7.751 7.751 0 0 1 52 57.37v-6.15h1.188v7.087zm3.563 1.195V46.469h1.188V59.5a7.56 7.56 0 0 1-.594.03c-.2 0-.398-.015-.594-.03zm2.375-7.095h1.188v6.53c-.381.159-.78.282-1.188.38v-6.91zm3.563 4.963c-.364.35-.762.664-1.188.937v-8.275h1.188v7.338zm-5.344-13.275c4.256 0 7.718 3.462 7.718 7.718a7.658 7.658 0 0 1-1.187 4.095v-7.063h-3.563v2.375h-1.187V45.28h-3.563v8.313h-1.187V50.03h-3.563v5.876a7.661 7.661 0 0 1-1.187-4.094c0-4.257 3.463-7.72 7.719-7.72z"></path>
  </symbol>
  <symbol viewBox="0 0 50 35" xmlns="http://www.w3.org/2000/svg" id="youtube">
    <path fill="var(--circle)" d="M48.54 5.89c.179.72.328 1.618.448 2.696.18 1.078.3 2.156.36 3.234.06 1.018.09 1.977.09 2.875.06.899.09 1.647.09 2.246v.809c0 5.39-.33 9.374-.989 11.95a6.266 6.266 0 0 1-1.617 2.695 6.228 6.228 0 0 1-2.785 1.617c-1.138.3-3.295.539-6.469.718-3.175.12-6.08.21-8.715.27H25c-10.242 0-16.621-.33-19.137-.988-2.336-.66-3.803-2.097-4.402-4.313-.3-1.138-.54-2.695-.719-4.672a344.29 344.29 0 0 1-.27-5.12V17.75c0-5.33.33-9.284.989-11.86a6.228 6.228 0 0 1 1.617-2.785 6.228 6.228 0 0 1 2.785-1.617c1.138-.3 3.295-.509 6.469-.629 3.175-.18 6.08-.3 8.715-.359H25c10.242 0 16.621.33 19.137.988a6.24 6.24 0 0 1 2.785 1.617 6.228 6.228 0 0 1 1.617 2.786zM19.968 25.118l12.847-7.367-12.847-7.277v14.644z"></path>
  </symbol>
</svg>